<?xml version="1.0" standalone="no"?>
<!DOCTYPE svg PUBLIC "-//W3C//DTD SVG 1.1//EN" "http://www.w3.org/Graphics/SVG/1.1/DTD/svg11.dtd" >
<!--
2013-9-30: Created.
-->
<svg>
<metadata>
Created by iconfont
</metadata>
<defs>

<font id="iconfont" horiz-adv-x="1024" >
  <font-face
    font-family="iconfont"
    font-weight="500"
    font-stretch="normal"
    units-per-em="1024"
    ascent="896"
    descent="-128"
  />
    <missing-glyph />
    
    <glyph glyph-name="shumajiadian" unicode="&#58897;" d="M512.5 430.268c-123.997 0-224.511-100.557-224.511-224.554 0-124.027 100.513-224.592 224.511-224.592 123.99 0 224.511 100.565 224.511 224.592C737.011 329.711 636.49 430.268 512.5 430.268zM511.327 45.11c-88.114 0-159.539 71.46-159.539 159.605 0 88.113 71.426 159.573 159.539 159.573 88.106 0 159.54-71.46 159.54-159.573C670.867 116.569 599.433 45.11 511.327 45.11zM900.153 555.405l-148.772 0-55.201 112.681c-5.431 10.241-15.121 16.145-25.226 16.576-1.037 0.113-2.088 0.171-3.153 0.171L363.198 684.833c-6.112 0-11.8-1.911-16.57-5.189-4.767-2.825-8.903-7.068-11.814-12.558L279.178 555.405l-85.618 0 0 32.145c0 18.114-14.677 32.816-32.791 32.816-18.107 0-32.791-14.702-32.791-32.816l0-32.145-4.136 0c-67.293 0-121.842-54.574-121.842-121.897l0-458.625c0-67.317 54.549-121.891 121.842-121.891l776.311 0c67.299 0 121.847 52.574 121.847 119.891L1022 433.507C1022 500.831 967.452 555.405 900.153 555.405zM961.08-25.118c0-33.671-27.274-60.955-60.927-60.955l-776.311 0c-33.646 0-60.927 27.284-60.927 60.955L62.915 431.507c0 33.707 27.28 60.961 60.927 60.961l177.975 0 0 0.152c9.515 0.965 18.474 6.77 23.612 16.461l55.429 111.284 269.66 0 54.503-111.284c5.241-9.878 14.444-15.726 24.161-16.518l0-0.095 170.97 0c33.652 0 60.927-27.254 60.927-60.961L961.079-25.118zM799.821 427.768c-17.654 0-31.959-14.297-31.959-31.951 0-17.648 14.305-31.977 31.959-31.977 17.647 0 31.958 14.329 31.958 31.977C831.78 413.471 817.469 427.768 799.821 427.768z"  horiz-adv-x="1024" />

    
    <glyph glyph-name="56" unicode="&#58936;" d="M761.354-64.218h-486.487c-91.773 0-166.429 74.655-166.429 166.428l0 422.474c0 91.773 74.656 166.429 166.429 166.429 21.216 0 38.407-17.197 38.407-38.407s-17.191-38.407-38.407-38.407c-49.414 0-89.616-40.202-89.616-89.616v-422.475c0-49.413 40.202-89.615 89.616-89.615l486.487-0c49.408 0 89.617 40.202 89.617 89.615v422.475c0 49.415-40.209 89.616-89.617 89.616-21.215 0-38.405 17.197-38.405 38.407s17.189 38.407 38.405 38.407c91.768 0 166.429-74.656 166.429-166.429v-422.475c-0.001-91.772-74.662-166.427-166.429-166.427zM480.34 652.707h75.539zM555.88 614.301h-75.538c-21.215 0-38.406 17.197-38.406 38.407s17.191 38.407 38.406 38.407h75.538c21.215 0 38.407-17.197 38.407-38.407s-17.192-38.407-38.407-38.407zM671.65 548.338c-21.215 0-38.405 17.197-38.405 38.409 0 91.959-52.723 169.655-115.135 169.655-62.409 0-115.132-77.696-115.132-169.655 0-21.212-17.191-38.409-38.406-38.409-21.216 0-38.407 17.197-38.407 38.409 0 135.905 86.103 246.467 191.945 246.467 105.846 0 191.947-110.562 191.947-246.467-0-21.212-17.192-38.409-38.407-38.409z"  horiz-adv-x="1024" />

    
    <glyph glyph-name="weibiaoti2" unicode="&#58901;" d="M476.672 730.0096 476.672 730.0096c-22.4256 11.4688-40.1408 14.336-41.984 14.6432-5.3248 0.8192-10.752 0.4096-15.7696-1.2288-19.968-6.2464-34.9184-19.3536-43.3152-37.888-14.336-31.5392-5.2224-70.8608 2.9696-94.72-9.5232-25.7024-10.0352-49.7664-1.6384-71.5776 13.824-35.6352 45.9776-49.2544 50.0736-50.7904 3.9936-1.6384 8.2944-2.4576 12.5952-2.4576 1.8432 0 3.7888 0.2048 5.632 0.512 5.0176 0.8192 10.0352 1.8432 15.2576 3.2768 28.4672 7.68 50.9952 22.4256 66.8672 44.1344 15.6672 21.2992 24.064 48.128 24.8832 79.7696 0.4096 14.1312-4.8128 32.256-15.4624 53.9648C527.2576 686.7968 491.8272 722.3296 476.672 730.0096zM452.608 519.3728c-4.1984-1.1264-8.192-1.9456-12.1856-2.6624l-0.1024 0c-0.6144-0.1024-1.2288 0-1.8432 0.2048l-0.2048 0.1024c-0.2048 0.1024-23.2448 9.216-32.5632 33.28-6.144 15.7696-4.9152 34.0992 3.584 54.272l2.3552 5.632-2.1504 5.7344c-4.3008 11.5712-17.408 51.2-5.8368 76.9024 4.8128 10.5472 13.1072 17.7152 24.6784 21.2992l0.3072 0.1024c0.2048 0.1024 0.4096 0.1024 0.7168 0.1024 0.2048 0 0.512 0 0.8192-0.1024 0.1024 0 14.4384-2.2528 32.6656-11.5712l0 0c8.0896-4.096 39.424-34.304 46.4896-48.7424 8.0896-16.384 12.5952-30.8224 12.288-39.5264C520.192 564.0192 496.3328 531.1488 452.608 519.3728zM512 832C264.6016 832 64 631.3984 64 384S264.6016-64 512-64 960 136.6016 960 384 759.3984 832 512 832zM876.8512 586.752c-14.6432-19.5584-21.504-44.7488-19.8656-73.9328 1.536-27.4432 10.0352-49.0496 10.8544-50.9952l0 0c0.2048-0.512 0.3072-1.1264 0.3072-1.7408-2.3552-33.0752-13.0048-56.7296-31.5392-70.5536-6.3488-4.7104-13.7216-8.192-21.7088-10.3424-15.6672-4.1984-29.5936-2.2528-33.5872-1.536l-1.024 0.2048-1.024 0c-49.8688 2.048-66.6624 73.728-71.5776 104.448l-2.1504 13.2096-13.312-0.3072c-36.864-0.7168-64.3072 34.816-74.1376 54.4768-28.8768 88.9856 73.8304 168.3456 108.7488 192.2048 29.0816-17.5104 56.0128-38.5024 80.2816-62.7712C834.7648 651.3664 858.0096 620.4416 876.8512 586.752zM127.488 221.5936c-10.24 24.064-18.0224 48.8448-23.4496 74.24 17.3056-0.7168 37.6832 2.048 58.6752 5.0176 21.0944 2.8672 45.056 6.2464 54.784 3.072l3.6864-1.2288 3.8912 0.7168c19.968 3.7888 68.1984 16.5888 85.1968 54.3744l1.3312 2.9696 0 3.2768c0 7.2704 1.3312 31.5392 16.6912 39.0144 19.0464 9.3184 45.7728-14.2336 54.4768-22.016l1.1264-1.024 0.9216-0.6144c8.704-5.7344 24.3712-5.2224 41.7792 13.2096 0.4096 0.4096 0.8192 0.7168 1.3312 0.9216l0.2048 0.1024c0.2048 0.1024 20.2752 8.192 43.6224-2.048 16.0768-6.9632 29.4912-20.7872 40.0384-41.0624l6.4512-12.4928 13.0048 5.4272c19.5584 8.0896 48.3328 16.1792 74.752 8.2944 20.1728-6.0416 35.6352-20.2752 46.1824-42.2912 0.1024-0.2048 0.2048-0.4096 0.2048-0.6144 0.1024-0.4096 2.7648-9.9328-4.1984-22.016-9.5232-16.5888-33.28-30.208-70.656-40.3456l-3.1744-0.9216-2.56-2.1504c-24.8832-20.5824-43.52-59.4944-21.2992-106.9056 0.2048-0.512 0.4096-1.024 0.4096-1.536 0.512-23.1424-10.8544-69.2224-57.5488-78.1312l-1.4336-0.3072-142.336-57.0368c0 0-0.1024 0-0.1024 0-49.664 20.992-94.3104 51.0976-132.608 89.3952S148.48 171.9296 127.488 221.5936zM807.0144 88.9856c-38.2976-38.2976-82.944-68.4032-132.608-89.3952-51.4048-21.7088-106.0864-32.768-162.4064-32.768-40.6528 0-80.384 5.7344-118.784 17.1008l107.52 43.1104c65.6384 13.5168 81.7152 76.8 80.9984 108.7488-0.1024 4.8128-1.2288 9.4208-3.1744 13.7216l-0.1024 0.1024c-16.896 35.84 0.2048 58.4704 10.6496 68.1984 44.1344 12.4928 72.192 30.1056 85.8112 53.76 12.5952 21.9136 8.4992 40.7552 6.9632 46.08-0.512 1.6384-1.1264 3.2768-1.9456 4.9152-14.4384 30.208-36.2496 49.9712-65.1264 58.5728-29.3888 8.8064-59.4944 3.3792-82.6368-4.5056-12.9024 20.3776-29.0816 34.9184-48.2304 43.2128-34.4064 15.0528-63.7952 3.7888-67.6864 2.2528-4.5056-1.8432-8.6016-4.608-11.9808-8.192-2.56-2.7648-4.7104-4.4032-6.144-5.4272-15.872 13.5168-49.8688 38.6048-83.2512 22.3232-28.2624-13.6192-33.28-46.08-33.8944-62.8736-11.776-21.504-44.2368-30.6176-58.368-33.5872-16.1792 3.584-38.6048 0.512-64.2048-3.072-19.5584-2.6624-44.6464-6.144-59.904-4.1984-2.56 18.7392-3.7888 37.7856-3.7888 56.9344 0 56.32 11.0592 111.0016 32.768 162.4064 20.992 49.664 51.0976 94.3104 89.3952 132.608s82.944 68.4032 132.608 89.3952c51.4048 21.7088 106.0864 32.768 162.4064 32.768s111.0016-11.0592 162.4064-32.768c7.5776-3.1744 15.0528-6.656 22.3232-10.24-22.016-16.2816-52.5312-41.984-76.5952-74.4448-16.2816-21.9136-27.4432-44.2368-33.1776-66.2528-7.0656-26.624-6.2464-53.0432 2.2528-78.4384l0.3072-0.9216 0.4096-0.9216c12.1856-25.088 43.8272-65.9456 89.6-71.9872 3.8912-19.456 10.6496-43.4176 22.2208-64.7168 18.1248-33.28 44.1344-51.712 75.264-53.3504 3.6864-0.6144 9.8304-1.3312 17.3056-1.3312 8.0896 0 18.0224 0.8192 28.4672 3.6864 11.776 3.1744 22.528 8.2944 32.0512 15.36 26.2144 19.3536 40.96 50.688 43.9296 93.0816 0.4096 5.5296-0.512 11.0592-2.7648 16.0768-0.9216 2.3552-16.9984 44.6464-2.7648 79.7696 1.1264-2.4576 2.1504-4.9152 3.1744-7.2704 21.7088-51.4048 32.768-106.0864 32.768-162.4064s-11.0592-111.0016-32.768-162.4064C875.52 171.9296 845.4144 127.2832 807.0144 88.9856z"  horiz-adv-x="1024" />

    
    <glyph glyph-name="qi" unicode="&#58919;" d="M418.625868 219.168907M634.401236 748.423897c-44.775786 0-89.151459-9.020444-132.066875-17.755386-42.650379-8.667404-82.915431-16.870226-123.244952-16.870226-31.330566 0-59.190077 5.130857-85.125773 15.677051-2.409886 0.972141-4.930289 1.348718-7.451716 1.460258-0.308015 0.021489-0.550539 0.176009-0.861624 0.176009-0.265036 0-0.464581-0.132006-0.728594-0.154519-2.566452-0.089028-5.064342-0.553609-7.452739-1.503237-0.420579-0.177032-0.795109-0.420579-1.215688-0.620124-0.995677-0.441045-2.012843-0.840134-2.940982-1.479701-0.928139-0.620124-1.703805-1.437745-2.521426-2.188852-0.331551-0.310062-0.707105-0.553609-1.017166-0.88516-1.723248-1.791809-3.071965-3.846608-4.111644-6.081509-0.222057-0.48607-0.375553-0.972141-0.575098-1.479701-0.906649-2.454912-1.547239-5.02034-1.547239-7.695263l0-299.773458 0-363.54283c0-12.205996 9.904581-22.112624 22.109554-22.112624 12.20395 0 22.109554 9.907651 22.109554 22.112624L307.758828 378.867096c22.420639-5.901407 45.924959-9.042957 71.352071-9.042957 44.773739 0 89.149413 9.020444 132.065851 17.755386 42.653449 8.665357 82.913385 16.870226 123.244952 16.870226 31.330566 0 59.167564-5.128811 85.104283-15.677051 6.78759-2.76395 14.550391-1.965771 20.673855 2.143826 6.101975 4.113691 9.771551 10.991332 9.771551 18.35402L749.971391 709.022515c0 8.998955-5.460362 17.092283-13.774725 20.47431C704.867124 742.255407 671.569764 748.423897 634.401236 748.423897zM705.753307 439.870472c-22.376637 5.884011-45.946448 8.777921-71.329559 8.777921-44.773739 0-89.149413-9.020444-132.066875-17.755386-42.629913-8.68787-82.914408-16.870226-123.243929-16.870226-25.869181 0-49.350988 3.493567-71.352071 10.635221L307.760874 678.377564c22.376637-5.881964 45.968961-8.777921 71.352071-8.777921 44.773739 0 89.149413 9.020444 132.065851 17.753339 42.653449 8.69094 82.913385 16.870226 123.244952 16.870226 25.848715 0 49.350988-3.493567 71.352071-10.635221l0-253.718539L705.753307 439.869449z"  horiz-adv-x="1024" />

    
    <glyph glyph-name="qian" unicode="&#58881;" d="M62.407352 141.309632M674.252361 752.276644 564.120055 549.500335c-29.667693-54.626131-47.198975-90.90336-53.318346-109.261473l-2.62171 0c-19.22997 43.708478-73.421196 147.721413-163.449629 312.037782L241.590314 752.276644l192.293561-330.395896L275.67869 421.880749l0-72.54627 185.302333 0 0-100.516298L275.67869 248.818181l0-74.299193 185.302333 0 0-145.968489 91.77624 0L552.757263 174.520011l178.308035 0 0 74.299193L552.757263 248.819205l0 100.516298 178.308035 0 0 72.54627L578.104557 421.881772l194.042391 330.395896L674.252361 752.277668zM957.451328 141.309632"  horiz-adv-x="1024" />

    
    <glyph glyph-name="icon" unicode="&#58891;" d="M684.087868 141.813099 327.601758 141.813099c-69.051679 0-125.228119 56.17644-125.228119 125.229143L202.373639 442.939367c0 69.045539 56.17644 125.217886 125.228119 125.217886l324.994885 0c11.193947 0 20.270672-9.074679 20.270672-20.268626 0-11.192923-9.075703-20.267603-20.270672-20.267603L327.601758 527.621025c-46.701648 0-84.692914-37.986149-84.692914-84.681658L242.908844 267.042241c0-46.701648 37.991266-84.692914 84.692914-84.692914l356.48611 0c46.700625 0 84.691891 37.991266 84.691891 84.692914 0-0.010233-0.116657 212.230636-0.116657 292.108894 0 39.624463 11.136641 70.139453 33.110095 90.704838 29.691229 27.783787 67.900459 25.602098 69.52547 25.483394 11.171434-0.741897 19.624966-10.396791 18.883069-21.565155-0.73985-11.172457-10.32516-19.609617-21.560038-18.882046-0.066515 0-22.853497 0.890276-39.47813-14.94334-13.238512-12.613272-19.946284-33.06814-19.946284-60.798714 0-79.867002 0.11768-292.098661 0.11768-292.098661C809.314964 197.989539 753.139547 141.813099 684.087868 141.813099zM653.032572 399.384385 359.288434 399.384385c-11.192923 0-20.267603 9.074679-20.267603 20.266579 0 11.193947 9.074679 20.268626 20.267603 20.268626l293.744137 0c11.192923 0 20.267603-9.074679 20.267603-20.268626C673.300174 408.459065 664.226518 399.384385 653.032572 399.384385zM653.032572 271.068951 359.288434 271.068951c-11.192923 0-20.267603 9.075703-20.267603 20.267603 0 11.193947 9.074679 20.268626 20.267603 20.268626l293.744137 0c11.192923 0 20.267603-9.073656 20.267603-20.268626C673.300174 280.145677 664.226518 271.068951 653.032572 271.068951zM788.295232 73.706955m-40.535205 0a39.612 39.612 0 1 0 81.07041 0 39.612 39.612 0 1 0-81.07041 0ZM232.437351 73.706955m-40.535205 0a39.612 39.612 0 1 0 81.07041 0 39.612 39.612 0 1 0-81.07041 0Z"  horiz-adv-x="1024" />

    
    <glyph glyph-name="praise-copy" unicode="&#58884;" d="M855.333 629.321c-61.294 78.994-110.994 79.506-145.481 81.627-88.21 5.413-178.981-62.939-197.339-85.723-37.559 48.384-125.184 91.173-210.981 82.395-27.099-2.816-50.542-15.177-71.643-28.782s-38.875-30.427-53.321-50.395c-14.446-20.005-25.271-42.642-32.512-67.913-7.205-25.271-10.277-52.37-9.143-81.225 1.097-28.891 6.949-56.101 17.518-81.664s23.186-49.298 37.925-71.278c14.738-21.943 30.427-42.057 47.104-60.379 16.677-18.322 32.219-34.414 46.665-48.311 22.199-21.687 44.727-42.203 67.474-61.659 22.784-19.456 44.434-36.279 64.987-50.432 20.553-14.19 81.993-52.443 95.598-58.587 16.494 4.059 232.777 117.138 327.278 285.221 12.178 21.76 95.342 194.633 15.872 297.106zM820.699 460.398c-53.577-227.877-297.728-351.049-306.066-351.049-9.216-0.512-261.778 132.462-316.416 348.27-14.629 57.856 31.671 221.221 171.739 190.793 10.935-2.377 94.83-33.243 148.882-96.622 15.25 18.944 31.378 36.023 48.457 51.237 14.775 12.471 31.488 23.771 50.213 33.938 18.725 10.13 38.217 14.519 58.514 13.166 28.635-2.304 188.123-5.083 144.677-189.733z"  horiz-adv-x="1024" />

    
    <glyph glyph-name="xingzhuang35" unicode="&#58887;" d="M811.776 339.4048C790.3744 181.504 657.664 59.392 497.2032 59.392 322.048 59.392 179.5072 204.9024 179.5072 383.8976 179.5072 562.8928 322.048 708.4032 497.2032 708.4032 657.7152 708.4032 790.4256 586.2912 811.776 428.3904L844.8512 428.3904 844.8512 339.4048 811.776 339.4048ZM497.2032 664.5248C345.6512 664.5248 222.464 538.624 222.464 383.8976 222.464 229.1712 345.7536 103.2704 497.2032 103.2704 648.8064 103.2704 772.1984 229.1712 772.1984 383.8976 772.1984 538.624 648.8064 664.5248 497.2032 664.5248ZM540.0064 376.1152C540.8256 372.5824 542.1056 369.2032 542.1056 365.4144 542.1056 340.4288 522.3424 320.2048 497.92 320.2048 473.4464 320.2048 453.6832 340.48 453.6832 365.4144 453.6832 366.4384 454.144 367.1552 454.144 368.128L380.8768 442.3168C370.8928 452.4032 370.7904 468.9408 380.7744 479.1808 390.656 489.4208 406.8864 489.472 416.8704 479.3856L487.0144 408.4224C490.5472 409.2928 493.9776 410.624 497.8688 410.624 507.4944 410.624 515.8912 406.784 523.2128 401.4592L622.7456 504.1152C628.6336 510.0544 637.8496 510.0544 643.584 504.2176 649.3696 498.432 649.3696 488.96 643.6352 482.9184L540.0064 376.1152ZM350.464 687.36 350.464 754.3296C350.464 832.4096 420.7616 895.744 507.4432 895.744 594.3296 895.744 664.5248 832.4096 664.5248 754.3296L664.5248 687.4112C617.472 712.8576 564.5312 728.6784 507.5456 728.6784 450.5088 728.6784 397.6192 712.8576 350.464 687.36ZM664.5248 80.384 664.5248 13.5168C664.5248-64.6656 594.2784-127.8976 507.4432-127.8976 420.7616-127.8976 350.464-64.6656 350.464 13.4144L350.464 80.4864C397.5168 54.8864 450.5088 39.168 507.5456 39.168 564.5312 39.168 617.472 54.8864 664.5248 80.384Z"  horiz-adv-x="1024" />

    
    <glyph glyph-name="hanbao" unicode="&#59146;" d="M782.200932 230.62482 265.87644 230.62482c-48.245817 0-87.490633-39.161928-87.490633-87.325881 0-48.163953 39.244816-87.325881 87.490633-87.325881l516.323469 0c48.245817 0 87.503936 39.161928 87.503936 87.325881C869.703845 191.462892 830.446749 230.62482 782.200932 230.62482zM782.200932 98.127134 265.87644 98.127134c-25.001417 0-45.336558 20.253276-45.336558 45.171806s20.336164 45.171806 45.336558 45.171806l516.323469 0c25.001417 0 45.350884-20.253276 45.350884-45.171806S807.201326 98.127134 782.200932 98.127134zM524.985756 787.208225c-194.355523 0-346.598926-145.505955-346.598926-331.244216l0-21.077038 691.318038 0 0 21.077038C869.703845 641.70227 718.284203 787.208225 524.985756 787.208225zM221.295082 477.041046c11.018961 151.900595 140.442636 268.014126 303.690674 268.014126 162.232918 0 290.860461-116.113531 301.81086-268.014126L221.295082 477.041046zM274.864138 283.838789c46.489824 0 61.295018 24.534789 72.108295 42.454928 9.522887 15.808034 15.271822 25.330922 45.267996 25.330922 30.146601 0 36.458353-9.604752 46.901193-25.52228 11.718903-17.838274 27.77253-42.263569 75.456552-42.263569 48.025807 0 64.190975 24.616654 75.991742 42.565445 10.263761 15.643282 16.452717 25.083282 44.980447 25.220405 0.220011 0 0.425695 0 0.644683 0 29.817096 0 38.022988-11.004635 50.386574-27.607778 12.637832-16.960277 29.913287-40.177048 71.723531-40.177048 0.220011 0 0.453325 0 0.672312 0 79.449493 0.494257 102.447277 56.944943 103.379509 59.33334 4.198625 10.730389-1.042749 22.64065-11.691273 27.004027-10.634198 4.391007-22.901593-0.740874-27.429723-11.334139-0.576121-1.316995-14.558577-32.5483-64.519456-32.850176-22.242584 0.137123-27.127847 8.150634-38.324864 23.216771-14.023388 18.826787-33.192983 44.568055-84.265172 44.568055-0.260943 0-0.535189 0-0.796132 0-51.127448-0.274246-67.813478-25.687032-79.997985-44.239574-9.976212-15.176654-15.47853-23.546276-40.754193-23.546276-24.946159 0-30.05041 7.766894-40.219004 23.2444-12.349259 18.799158-29.255301 44.540426-82.138742 44.540426-53.803393 0-69.734224-26.427906-81.370239-45.693692-9.139148-15.176654-13.310144-22.092158-36.006052-22.092158-54.118572 0-67.978231 30.599925-68.77334 32.493042-4.14439 10.70276-16.164145 16.191774-26.949792 12.130272-10.92277-4.033873-16.506952-16.136515-12.473079-27.059286C167.573553 341.113237 189.706643 283.838789 274.864138 283.838789z"  horiz-adv-x="1024" />

    
    <glyph glyph-name="zhishichanquan2" unicode="&#58947;" d="M780.8 531.2l-227.2 129.6-86.4-51.2 227.2-129.6 86.4 51.2zM512 896c-283.2 0-512-228.8-512-512s228.8-512 512-512 512 228.8 512 512-228.8 512-512 512zM886.4 286.4l-390.4-235.2c-3.2-1.6-8-3.2-11.2-3.2-4.8 0-8 1.6-11.2 3.2l-316.8 206.4c-1.6 1.6-3.2 3.2-4.8 4.8-3.2 3.2-28.8 36.8-22.4 73.6 1.6 11.2 8 28.8 24 43.2-1.6 1.6-3.2 3.2-3.2 4.8-17.6 27.2-35.2 88 22.4 126.4v0c0 0 0 0 0 0s0 0 0 0 0 0 1.6 0l390.4 204.8c6.4 3.2 14.4 3.2 20.8 0l300.8-166.4c6.4-3.2 11.2-11.2 11.2-19.2s-4.8-14.4-11.2-19.2l-25.6-14.4c-6.4-11.2-14.4-33.6-9.6-46.4 1.6-1.6 3.2-8 12.8-11.2v0c9.6 6.4 24 3.2 28.8-6.4 6.4-9.6 3.2-24-6.4-28.8l-28.8-17.6c-4.8-12.8-14.4-40-6.4-57.6 1.6-4.8 4.8-8 8-11.2l4.8 3.2c9.6 6.4 24 3.2 28.8-8 6.4-6.4 3.2-19.2-6.4-25.6zM804.8 355.2l-304-185.6c-3.2-1.6-8-3.2-11.2-3.2-4.8 0-8 1.6-11.2 3.2l-288 185.6c0 0-1.6-1.6-1.6-1.6-9.6-6.4-16-14.4-17.6-22.4-1.6-16 8-32 12.8-38.4l302.4-196.8 334.4 201.6c-4.8 4.8-8 11.2-9.6 17.6-6.4 12.8-6.4 27.2-6.4 40zM804.8 468.8l-310.4-169.6c-3.2-1.6-6.4-3.2-9.6-3.2-3.2 0-8 1.6-11.2 3.2l-288 168c-19.2-20.8-8-46.4-3.2-56l307.2-198.4 332.8 203.2c-6.4 6.4-11.2 14.4-12.8 20.8-4.8 11.2-4.8 22.4-4.8 32z"  horiz-adv-x="1024" />

    
    <glyph glyph-name="zhishichanquanbaohu" unicode="&#58900;" d="M512-128C229.232-128 0 101.232 0 384 0 666.768 229.232 896 512 896 794.768 896 1024 666.768 1024 384 1024 101.232 794.768-128 512-128ZM780.704 636.384 773.2 655.504 752.752 657.904C666.736 667.984 589.408 691.584 529.12 726.208L512.016 736.032 494.912 726.208C434.608 691.584 357.312 667.984 271.28 657.904L250.8 655.504 243.328 636.384C220.304 577.456 208.096 510.736 208.096 443.504 208.096 75.232 504.672 33.024 507.648 32.64L512.944 31.968 518.192 32.912C521.312 33.504 594.848 47.408 668.112 105.376 735.536 158.656 815.904 260.528 815.904 443.488 815.904 510.736 803.744 577.456 780.704 636.384ZM512 96C512 96 328.928 118.928 285.2 347.44 285.2 347.44 276.192 397.984 276.64 443.504 276.64 495.28 284.816 546.464 300.4 592.864 365.104 602.144 425.168 618.736 477.76 641.568L512 656 546.272 641.568C598.912 618.736 658.96 602.144 723.648 592.864 739.168 546.624 747.328 495.648 747.392 444.064 747.152 442.704 745.12 380.352 738 347.44 692 126.432 512 96 512 96ZM615.616 409.632C627.808 423.072 634.784 439.872 634.784 463.392 634.784 473.456 633.04 485.216 629.552 493.616 626.064 503.696 620.848 512.096 612.144 518.816 605.168 525.536 596.464 532.256 586.016 535.616 577.312 538.976 568.592 540.656 559.888 542.336 549.44 544.016 537.248 544.016 523.328 544.016L422.32 544.016C408.384 544.016 399.68 540.656 392.704 535.616 387.488 530.576 384 520.496 384 507.056L384 278.624C384 266.864 387.488 256.784 392.704 251.76 397.936 245.04 406.64 241.68 415.344 241.68 424.048 241.68 432.768 245.04 437.984 250.08 443.216 256.8 446.688 265.184 446.688 276.944L446.688 372.688 469.328 372.688C479.776 372.688 490.224 371.008 497.2 367.648 504.16 364.288 511.136 359.248 518.096 352.528 525.056 345.808 533.76 334.048 542.48 318.944L566.864 278.624C572.08 268.544 577.312 261.824 580.784 256.8 584.272 251.76 587.76 248.4 592.976 245.04 598.208 241.68 603.424 240 610.4 240 615.616 240 620.848 241.68 626.064 243.36 631.296 245.04 634.784 248.4 636.512 251.76 638.256 255.12 640 260.16 640 263.52 640 266.88 638.256 273.584 633.04 283.664 627.808 297.104 620.848 308.864 613.872 320.624 605.168 332.384 596.464 344.128 587.76 355.888 577.312 367.648 566.864 376.048 556.416 381.088 582.528 386.128 601.696 396.208 615.616 409.632ZM500.688 418.032 444.96 418.032 444.96 500.336 502.432 500.336C523.328 500.336 538.992 498.656 545.968 495.296 552.928 491.936 559.888 486.896 563.376 481.856 566.864 475.136 570.336 468.416 570.336 460.032 570.336 449.952 566.864 441.552 561.632 434.832 556.416 428.112 547.712 423.072 538.992 421.392 528.544 419.712 516.352 418.032 500.688 418.032Z"  horiz-adv-x="1024" />

    
    <glyph glyph-name="yundonghuwaileimu" unicode="&#59114;" d="M611.4 754.9c-99.1 26.6-202.5 12.9-291.4-38.3-88.8-51.3-152.4-134.1-178.9-233.2-54.8-204.5 67-415.5 271.5-470.3 33.1-8.9 66.7-13.3 100-13.3 66.5 0 132.2 17.5 191.3 51.6 88.8 51.3 152.4 134.1 178.9 233.2C937.7 489.1 815.9 700.1 611.4 754.9zM202.9 466.8c18.3 68.2 57.8 126.9 112.7 169.4 44.7-52.3 63.2-131.4 41.9-210.8-21.2-79.3-76.7-138.6-141.5-161.6C190.5 326.2 184.2 396.9 202.9 466.8zM429.2 74.9c-78.2 21-141.6 69.5-183.2 132.1 80.2 31.9 147.4 105 173.3 201.8 25.9 96.7 4.4 193.6-49.1 261.3 44.5 22.1 92.5 34 141.2 34 27.8 0 55.8-3.7 83.4-11 78.2-21 141.6-69.5 183.2-132.1-80.2-31.9-147.4-105-173.3-201.8-26-96.9-4.3-193.8 49.3-261.5C584.2 62.9 505.1 54.5 429.2 74.9zM821.1 301.2c-18.3-68.2-57.8-126.9-112.7-169.4-44.7 52.3-63.2 131.4-41.9 210.8 21.2 79.3 76.7 138.6 141.5 161.6C833.5 441.8 839.8 371.1 821.1 301.2z"  horiz-adv-x="1024" />

    
    <glyph glyph-name="shumajiadian1" unicode="&#59368;" d="M513.470144 538.370106c-124.475846 0-225.376189-100.944513-225.376189-225.419355 0-124.504958 100.900343-225.457501 225.376189-225.457501 124.467815 0 225.376189 100.952543 225.376189 225.457501C738.846333 437.425594 637.938963 538.370106 513.470144 538.370106zM512.293627 151.727838c-88.453561 0-160.154813 71.734379-160.154813 160.220064 0 88.452558 71.701252 160.18794 160.154813 160.18794 88.445531 0 160.154813-71.735383 160.154813-160.18794C672.447436 223.462217 600.739158 151.727838 512.293627 151.727838zM902.618031 663.989342 753.27171 663.989342l-55.412722 113.115234c-5.451929 10.280465-15.179271 16.207217-25.323212 16.639878-1.040996 0.113435-2.096046 0.171659-3.165151 0.171659L363.593788 793.916114c-6.135554 0-11.845473-1.918364-16.634859-5.21-4.78537-2.835887-8.937309-7.095238-11.859527-12.606394L279.250004 663.989342 193.302061 663.989342l0 32.268876c0 18.183805-14.73356 32.942462-32.917365 32.942462-18.176778 0-32.917365-14.758657-32.917365-32.942462l0-32.268876-4.151939 0C55.762063 663.989342 1.003854 609.205032 1.003854 541.622592l0-460.392385c0-67.576417 54.758209-122.360727 122.311538-122.360727l779.302639 0c67.558348 0 122.317561 52.776602 122.317561 120.353019L1024.935592 541.622592C1024.934588 609.205032 970.175374 663.989342 902.618031 663.989342zM963.778819 81.229203c0-33.800757-27.379105-61.1899-61.161792-61.1899L123.315391 20.039303c-33.77566 0-61.161792 27.389143-61.161792 61.1899L62.153599 539.614885c0 33.836895 27.386132 61.195923 61.161792 61.195923l178.660855 0 0 0.152586c9.551668 0.968719 18.545193 6.796089 23.702993 16.524435l55.642605 111.712851 270.699178 0 54.713036-111.712851c5.261197-9.916066 14.499662-15.786603 24.254108-16.581655l0-0.095366 171.62886 0c33.781683 0 61.161792-27.359028 61.161792-61.195923L963.778819 81.229203zM801.899385 535.860472c-17.722033 0-32.082159-14.352096-32.082159-32.074128 0-17.716009 14.360127-32.100229 32.082159-32.100229 17.715006 0 32.081155 14.384219 32.081155 32.100229C833.981544 521.508376 819.615395 535.860472 801.899385 535.860472z"  horiz-adv-x="1027" />

    
    <glyph glyph-name="fushi" unicode="&#58892;" d="M804.650735 574.174294 620.839359 574.174294c-6.045693 0-11.530614-2.441609-15.493879-6.365988l-78.794577 0 0 30.869055c0 12.171204-9.889231 22.060435-22.060435 22.060435-40.578184 0-73.568553 32.990369-73.568553 73.54911 0 40.557718 32.990369 73.589019 73.568553 73.589019 40.557718 0 73.548086-33.031301 73.548086-73.589019 0-12.171204 9.889231-22.060435 22.061458-22.060435 12.190647 0 22.060435 9.889231 22.060435 22.060435 0 64.900126-52.789297 117.668956-117.668956 117.668956-64.900126 0-117.690446-52.768831-117.690446-117.668956 0-57.3338 41.238216-105.258299 95.630011-115.627461l0-10.850116-62.85863 0c-3.964288 3.923356-9.449209 6.365988-15.494902 6.365988L220.266148 574.175317c-50.547233 0-91.645257-41.11849-91.645257-91.645257l0-253.595742c0-12.171204 9.869788-22.062482 22.060435-22.062482l102.415554 0-17.636682-226.330772c-0.460488-6.124488 1.62194-12.171204 5.806239-16.693194 4.183276-4.52506 10.029424-7.088442 16.194844-7.088442l509.995343 0c6.145977 0 12.010545 2.563382 16.175401 7.088442 4.183276 4.523013 6.28617 10.568706 5.805216 16.693194l-17.615193 226.330772 102.414531 0c12.172227 0 22.060435 9.891278 22.060435 22.062482l0 253.595742C896.295991 533.055804 855.177502 574.174294 804.650735 574.174294zM593.854774 523.687436c-11.771091-33.670867-43.760666-57.894571-81.396845-57.894571-37.634132 0-69.62473 24.222681-81.395822 57.894571L593.854774 523.687436zM852.175121 250.992707l-83.797521 0-8.348132 107.179045c-0.941442 12.131295-11.530614 21.099551-23.701818 20.259416-12.151761-0.959861-21.220301-11.570523-20.278859-23.700795L743.61359 0.880299 281.303292 0.880299l27.565822 353.850074c0.940418 12.130272-8.147564 22.740934-20.298302 23.700795-12.07092 0.919952-22.741957-8.127098-23.702841-20.259416l-8.327666-107.179045-83.798545 0L172.741761 482.529037c0 26.224268 21.300119 47.524386 47.524386 47.524386l163.632801 0c10.488889-61.457724 64.139809-108.381429 128.558981-108.381429 64.400752 0 118.049626 46.923706 128.561028 108.381429l163.631778 0c26.203802 0 47.523363-21.299095 47.523363-47.524386L852.174098 250.992707z"  horiz-adv-x="1024" />

    
    <glyph glyph-name="fushi1" unicode="&#58902;" d="M804.650735 574.174294 620.839359 574.174294c-6.045693 0-11.530614-2.441609-15.493879-6.365988l-78.794577 0 0 30.869055c0 12.171204-9.889231 22.060435-22.060435 22.060435-40.578184 0-73.568553 32.990369-73.568553 73.54911 0 40.557718 32.990369 73.589019 73.568553 73.589019 40.557718 0 73.548086-33.031301 73.548086-73.589019 0-12.171204 9.889231-22.060435 22.061458-22.060435 12.190647 0 22.060435 9.889231 22.060435 22.060435 0 64.900126-52.789297 117.668956-117.668956 117.668956-64.900126 0-117.690446-52.768831-117.690446-117.668956 0-57.3338 41.238216-105.258299 95.630011-115.627461l0-10.850116-62.85863 0c-3.964288 3.923356-9.449209 6.365988-15.494902 6.365988L220.266148 574.175317c-50.547233 0-91.645257-41.11849-91.645257-91.645257l0-253.595742c0-12.171204 9.869788-22.062482 22.060435-22.062482l102.415554 0-17.636682-226.330772c-0.460488-6.124488 1.62194-12.171204 5.806239-16.693194 4.183276-4.52506 10.029424-7.088442 16.194844-7.088442l509.995343 0c6.145977 0 12.010545 2.563382 16.175401 7.088442 4.183276 4.523013 6.28617 10.568706 5.805216 16.693194l-17.615193 226.330772 102.414531 0c12.172227 0 22.060435 9.891278 22.060435 22.062482l0 253.595742C896.295991 533.055804 855.177502 574.174294 804.650735 574.174294zM593.854774 523.687436c-11.771091-33.670867-43.760666-57.894571-81.396845-57.894571-37.634132 0-69.62473 24.222681-81.395822 57.894571L593.854774 523.687436zM852.175121 250.992707l-83.797521 0-8.348132 107.179045c-0.941442 12.131295-11.530614 21.099551-23.701818 20.259416-12.151761-0.959861-21.220301-11.570523-20.278859-23.700795L743.61359 0.880299 281.303292 0.880299l27.565822 353.850074c0.940418 12.130272-8.147564 22.740934-20.298302 23.700795-12.07092 0.919952-22.741957-8.127098-23.702841-20.259416l-8.327666-107.179045-83.798545 0L172.741761 482.529037c0 26.224268 21.300119 47.524386 47.524386 47.524386l163.632801 0c10.488889-61.457724 64.139809-108.381429 128.558981-108.381429 64.400752 0 118.049626 46.923706 128.561028 108.381429l163.631778 0c26.203802 0 47.523363-21.299095 47.523363-47.524386L852.174098 250.992707z"  horiz-adv-x="1024" />

    
    <glyph glyph-name="shouji" unicode="&#59011;" d="M713.14823-86.874347 310.850747-86.874347c-50.705845 0-91.959412 41.253566-91.959412 91.959412l0 757.829871c0 50.705845 41.253566 91.959412 91.959412 91.959412l402.297482 0c50.705845 0 91.959412-41.253566 91.959412-91.959412l0-757.830895C805.107641-45.620781 763.856122-86.874347 713.14823-86.874347zM264.871553 142.473131l0-137.388067c0-25.358551 20.621667-45.979194 45.980217-45.979194l402.297482 0c25.358551 0 45.980217 20.620643 45.980217 45.979194L759.12947 142.473131 264.871553 142.473131 264.871553 142.473131zM264.871553 188.452325l494.256894 0 0 574.463634c0 25.358551-20.621667 45.979194-45.980217 45.979194L310.850747 808.895153c-25.358551 0-45.980217-20.620643-45.980217-45.979194L264.871553 188.452325 264.871553 188.452325zM562.439786 35.133428c0-27.836999-22.573111-50.438763-50.438763-50.438763-27.836999 0-50.438763 22.600741-50.438763 50.438763 0 27.835975 22.601764 50.438763 50.438763 50.438763C539.865651 85.57219 562.439786 62.970426 562.439786 35.133428"  horiz-adv-x="1024" />

    
    <glyph glyph-name="fushi2" unicode="&#59195;" d="M917.32992 482.13504 760.4992 687.9744c-37.82656 49.664-134.35392 44.68736-145.32608 44.07296-8.67328-0.57856-15.98464-6.84544-17.95072-15.32416-0.71168-3.08224-18.25792-75.7248-84.82816-75.7248-71.68 0-84.096 71.38816-84.57728 74.33728-1.23392 8.13568-7.40352 14.63296-15.4624 16.32768-91.264 19.16416-137.67168-41.20064-139.03872-43.06944L102.62528 481.74592c-10.56256-12.8-14.88384-28.28288-12.16512-43.59168 2.6624-14.98112 12.16512-28.24192 26.10176-36.39808l125.60384-73.51808 0-240.32256c0-32.66048 26.64448-59.22304 59.37664-59.22304l415.28832 0c32.73728 0 59.37664 26.56768 59.37664 59.22304l0 242.63168 124.87168 71.34208c13.93664 7.94112 23.69536 21.16608 26.7776 36.26496C930.92352 453.2736 927.08864 469.31456 917.32992 482.13504zM881.5104 436.1728l-105.30304-60.15488L776.20736 445.0048c0 10.91072-8.832 19.74272-19.74272 19.74272-10.91072 0-19.74272-8.832-19.74272-19.74272l0-357.08416c0-10.7008-9.11872-19.74272-19.89632-19.74272L301.54752 68.17792c-10.97216 0-19.89632 8.84736-19.89632 19.74272L281.6512 445.0048c0 10.91072-8.832 19.74272-19.74272 19.74272s-19.74272-8.832-19.74272-19.74272l0-71.00928L136.4992 435.84512c-4.02944 2.35008-6.51776 5.55008-7.17312 9.216-0.65536 3.72224 0.67584 7.82848 3.75808 11.5456L304.34304 664.1664c0.3072 0.40448 28.91776 37.74976 87.64416 30.86336 11.02848-38.55872 45.64992-93.52192 120.41728-93.52192 68.9408 0 105.41568 53.44256 118.95296 91.47904 28.86144-0.19456 79.81568-5.39648 97.72544-28.93824l156.83584-205.85984c2.91328-3.81952 4.06528-8.13568 3.25632-12.16512C888.33536 442.01472 885.63712 438.52288 881.5104 436.1728zM509.19936 526.14656c106.28608 0 156.89216 109.56288 158.99136 114.2272 4.47488 9.94816 0.04096 21.632-9.89184 26.12224-9.984 4.4544-21.632 0.02048-26.12224-9.89184-0.40448-0.92672-41.91232-90.97728-122.97728-90.97728-80.58368 0-122.61376 90.10688-123.01824 91.01312-4.51072 9.89184-16.1536 14.24896-26.12224 9.81504-9.92768-4.51072-14.34112-16.1536-9.87136-26.0864C352.28672 635.70944 402.8928 526.14656 509.19936 526.14656zM683.0336 147.01056 335.33952 147.01056c-10.91072 0-19.74272-8.832-19.74272-19.74272 0-10.91072 8.832-19.74272 19.74272-19.74272l347.69408 0c10.91072 0 19.74272 8.832 19.74272 19.74272C702.77632 138.17856 693.94944 147.01056 683.0336 147.01056z"  horiz-adv-x="1024" />

    
    <glyph glyph-name="yundonghuwai" unicode="&#58915;" d="M109.226667 13.653333c-13.653333 0-23.893333 5.12-32.426667 13.653333s-11.946667 20.48-10.24 34.133333c1.706667 11.946667 23.893333 298.666667 122.88 471.04 102.4 175.786667 230.4 238.933333 310.613333 238.933333 110.933333 0 213.333333-80.213333 305.493333-238.933333 112.64-192.853333 128-460.8 128-471.04 1.706667-11.946667-3.413333-23.893333-11.946667-34.133333-8.533333-8.533333-20.48-13.653333-32.426667-13.653333L109.226667 13.653333zM785.066667 39.253333l102.4 0c5.12 0 10.24 1.706667 13.653333 5.12s5.12 8.533333 5.12 13.653333c0 3.413333-15.36 271.36-124.586667 460.8C696.32 667.306667 597.333333 745.813333 498.346667 745.813333 421.546667 745.813333 302.08 675.84 211.626667 520.533333c-97.28-168.96-119.466667-457.386667-119.466667-460.8 0-5.12 1.706667-10.24 5.12-13.653333s8.533333-5.12 13.653333-5.12l102.4 0c11.946667 76.8 87.04 508.586667 286.72 508.586667C699.733333 547.84 773.12 117.76 785.066667 39.253333zM610.986667 39.253333l148.48 0c-13.653333 81.92-87.04 482.986667-261.12 482.986667C324.266667 522.24 250.88 121.173333 238.933333 39.253333l139.946667 0c10.24 81.92 46.08 290.133333 116.053333 290.133333S600.746667 121.173333 610.986667 39.253333zM404.48 39.253333l182.613333 0c-17.066667 131.413333-54.613333 264.533333-90.453333 264.533333C459.093333 303.786667 421.546667 170.666667 404.48 39.253333z"  horiz-adv-x="1024" />

    
    <glyph glyph-name="shafa" unicode="&#58893;" d="M892.186 574.677v49.678c0 61.672-50.096 111.654-111.909 111.654h-537.17c-61.792 0-111.91-49.983-111.91-111.654v-49.678c-38.535-9.987-67.147-44.618-67.147-86.184v-424.291h895.283v424.292c0 41.565-28.591 76.196-67.147 86.183zM243.107 691.348h537.17c37.093 0 67.145-30.006 67.145-66.992v-49.678c-38.534-9.987-67.145-44.618-67.145-86.184v-66.992h-537.17v66.992c0 41.566-28.59 76.197-67.147 86.184v49.678c0 36.985 30.077 66.992 67.147 66.992zM780.276 376.837v-66.993h-246.201v66.993h246.201zM243.107 376.837h246.203v-66.993h-246.203v66.993zM915.508 107.011h-807.611v381.483c0 25.449 20.677 46.059 46.164 46.059 25.486 0 44.283-20.609 44.283-46.059v-223.312h626.698v223.312c0 25.449 19.758 46.059 45.243 46.059s45.224-20.609 45.224-46.059v-381.483h-0.001z"  horiz-adv-x="1024" />

    
    <glyph glyph-name="sandaogangwutianchong" unicode="&#58955;" d="M60.506561 397.08604c0.315178 0.901533 0.762363 1.779529 0.924045 2.707668 2.949168 16.848737 11.739369 29.592992 26.730805 37.919634 6.463202 3.589758 13.514805 5.338588 20.839631 5.982248 2.521426 0.221034 5.066389 0.25992 7.600095 0.260943 268.010033 0.010233 536.020066-0.01535 804.029076 0.066515 17.993816 0.005117 31.648814-7.645121 41.84913-21.940708 7.698333-10.789741 11.06501-22.940478 9.568936-36.190247-2.316765-20.496823-16.765849-38.756699-38.122249-44.246737-5.90243-1.517563-11.919471-2.01182-17.996886-2.01182-144.155191 0.004093-288.310382 0.00307-432.466596 0.00307-123.526361 0-247.053746 0.025583-370.580107-0.024559-21.084201-0.008186-35.798321 10.147104-45.822628 28.015054-2.942005 5.244444-4.731768 10.942213-5.647627 16.906042-0.143263 0.935302-0.595564 1.822508-0.904603 2.731204C60.506561 390.53688 60.506561 393.81146 60.506561 397.08604zM60.506561 665.192264c0.315178 0.901533 0.762363 1.779529 0.924045 2.707668 2.949168 16.848737 11.739369 29.592992 26.730805 37.919634 6.463202 3.589758 13.514805 5.338588 20.839631 5.982248 2.521426 0.221034 5.066389 0.25992 7.600095 0.260943 268.010033 0.010233 536.020066-0.01535 804.029076 0.066515 17.993816 0.005117 31.648814-7.645121 41.84913-21.940708 7.698333-10.789741 11.06501-22.940478 9.568936-36.190247-2.316765-20.496823-16.765849-38.756699-38.122249-44.246737-5.90243-1.517563-11.919471-2.01182-17.996886-2.01182-144.155191 0.004093-288.310382 0.00307-432.466596 0.00307-123.526361 0-247.053746 0.025583-370.580107-0.024559-21.084201-0.008186-35.798321 10.147104-45.822628 28.015054-2.942005 5.244444-4.731768 10.942213-5.647627 16.906042-0.143263 0.935302-0.595564 1.822508-0.904603 2.731204C60.506561 658.643104 60.506561 661.917684 60.506561 665.192264zM106.678136 76.668403c-1.01205 0.254803-2.01796 0.536212-3.036149 0.76134-14.703887 3.252067-25.463951 11.890818-33.129538 24.561395-5.745864 9.497305-8.384971 19.874653-7.470135 30.984688 1.817392 22.065552 17.425881 41.36613 39.9642 46.354747 4.813632 1.065262 9.6815 1.541099 14.610766 1.540076 60.000536-0.011256 120.001071-0.007163 180.001607-0.007163 208.405517 0 416.811034-0.028653 625.218598 0.051165 17.685801 0.007163 31.146371-7.54586 41.362037-21.465894 6.776334-9.233292 10.336416-19.727297 10.241248-31.18935-0.107447-12.995989-4.577249-24.51023-13.227256-34.271548-8.680706-9.794064-19.675108-15.22168-32.606629-16.853853-0.720408-0.091074-1.425466-0.308015-2.136663-0.466628C653.205511 76.668403 379.941823 76.668403 106.678136 76.668403zM976.570269 679.51855c-0.333598 2.152013-0.51984 4.338818-1.02433 6.448876"  horiz-adv-x="1024" />

    
    <glyph glyph-name="bao" unicode="&#58890;" d="M834.3 652.9h-71.6v71.6c0 59.3-48.2 107.5-107.5 107.5H368.6c-59.3 0-107.5-48.2-107.5-107.5v-71.6h-71.6C130.3 652.9 82 604.7 82 545.4v-501.5c0-59.3 48.2-107.5 107.5-107.5h644.8c28.7 0 55.7 11.2 76 31.5 20.3 20.3 31.5 47.3 31.5 76V545.4c0 59.3-48.2 107.5-107.5 107.5z m-501.4 71.6c0 19.7 16 35.8 35.8 35.8h286.6c19.7 0 35.8-16 35.8-35.8v-71.6H332.9v71.6z m-71.8-187.7c-11.1-10.5-18-25.4-18-41.9 0-31.9 25.9-57.8 57.8-57.8s57.8 25.9 57.8 57.8c0 20.1-10.3 37.8-25.9 48.2v38.1H691v-44.4c-11.1-10.5-18-25.4-18-41.9 0-31.9 25.9-57.8 57.8-57.8s57.8 25.9 57.8 57.8c0 20.1-10.3 37.8-25.9 48.2v38.1h71.6c19.7 0 35.8-16 35.8-35.8v-501.5c0-19.7-16.1-35.8-35.8-35.8H189.5c-19.7 0-35.8 16-35.8 35.8V545.4c0 19.7 16 35.8 35.8 35.8h71.6v-44.4z"  horiz-adv-x="1024" />

    
    <glyph glyph-name="guizezhongxin" unicode="&#58924;" d="M512.3 504.1c-62.7 0-113.8-50.5-113.8-112.7s51.1-112.6 113.8-112.6c62.7 0 113.8 50.5 113.8 112.6s-51 112.7-113.8 112.7zM512.3 832.2C265 832.2 64.5 631.8 64.5 384.4S265-63.3 512.3-63.3s447.8 200.5 447.8 447.8S759.7 832.2 512.3 832.2z m117.8-288.8l26 25.8c6 5.9 15.6 5.9 21.5 0s5.9-15.4 0-21.3l-26-25.8c-3-2.9-6.9-4.4-10.8-4.4-3.9 0-7.8 1.5-10.8 4.4-5.8 5.9-5.8 15.4 0.1 21.3z m-131.3 79.1c0 8.3 6.8 15.1 15.2 15.1 8.4 0 15.2-6.7 15.2-15.1v-36.4c0-8.3-6.8-15.1-15.2-15.1-8.4 0-15.2 6.7-15.2 15.1v36.4z m-166.5-228h-36.8c-8.4 0-15.2 6.7-15.2 15.1s6.8 15.1 15.2 15.1h36.8c8.4 0 15.2-6.7 15.2-15.1 0-8.4-6.8-15.1-15.2-15.1z m17.1 177c5.9 5.9 15.6 5.9 21.5 0l26-25.8c6-5.9 6-15.4 0-21.3-3-2.9-6.9-4.4-10.8-4.4-3.9 0-7.8 1.5-10.8 4.4l-26 25.8c-5.8 5.9-5.8 15.4 0.1 21.3z m198.8-440.2h-71.6c-8.4 0-15.2 6.8-15.2 15.1s6.8 15.1 15.2 15.1h71.6c8.4 0 15.2-6.7 15.2-15.1 0-8.4-6.8-15.1-15.2-15.1z m20.3 57.2H456.2c-8.4 0-15.2 6.7-15.2 15.1 0 8.3 6.8 15.1 15.2 15.1h112.3c8.4 0 15.2-6.8 15.2-15.1s-6.8-15.1-15.2-15.1z m45.8 102c-27.2-26.9-63.5-41.8-102-41.8s-74.7 14.9-102 41.8c-27.2 27-42.2 62.8-42.2 101 0 38.1 15 74 42.2 101 27.2 26.9 63.5 41.8 102 41.8s74.7-14.9 102-41.8c27.2-27 42.2-62.8 42.2-101 0.1-38.2-14.9-74.1-42.2-101z m114.9 100.6h-36.8c-8.4 0-15.2 6.7-15.2 15.1 0 8.3 6.8 15.1 15.2 15.1h36.8c8.4 0 15.2-6.7 15.2-15.1 0-8.3-6.8-15.1-15.2-15.1z"  horiz-adv-x="1024" />

    
    <glyph glyph-name="shouji1" unicode="&#58933;" d="M647.149073 523.26481zM290.5197 523.26481zM554.156122 608.857211a121.026424 121.026424 0 0 0-5.120624-6.426363 42.821271 42.821271 0 0 1 5.120624 6.426363zM737.666646 850.519156H286.36303c-21.381983 0-38.723953-19.513426-38.723953-43.569308v-845.897649c0-24.056905 17.34197-43.570331 38.723953-43.570332h451.303616c21.38096 0 38.693254 19.513426 38.693254 43.570332V806.948825c0 24.055882-17.312294 43.570331-38.693254 43.570331zM495.811296 809.821245h27.63643c5.892197 0 10.660804-5.332449 10.660804-11.907191 0-6.574742-4.768607-11.905144-10.660804-11.905144h-27.63643c-5.89322 0-10.659781 5.330402-10.659781 11.905144 0 6.574742 4.76656 11.907191 10.659781 11.907191z m16.188704-871.275643c-24.299429 0-43.97863 19.680225-43.97863 43.979654 0 24.295336 19.679202 43.97863 43.97863 43.97863 24.299429 0 43.97863-19.681248 43.97863-43.97863-0.001023-24.299429-19.679202-43.979654-43.97863-43.979654zM725.030861 74.159256c0-14.277168-10.355859-25.863041-23.112394-25.863041H324.634682c-12.787234 0-23.14514 11.585873-23.14514 25.863041V744.352161c0 14.276145 10.357905 25.862018 23.14514 25.862018h377.283785c12.756535 0 23.112394-11.585873 23.112394-25.862018V74.159256z"  horiz-adv-x="1024" />

    
    <glyph glyph-name="shouji2" unicode="&#58625;" d="M773.689-36.978h-523.378c-37.706 0-68.267 30.583-68.267 68.267v705.422c0 37.683 30.561 68.267 68.267 68.267h523.378c37.706 0 68.267-30.583 68.267-68.267v-705.422c0-37.683-30.561-68.267-68.267-68.267zM796.444 713.956c0 25.122-20.389 45.511-45.511 45.511h-477.867c-25.122 0-45.511-20.389-45.511-45.511v-659.911c0-25.122 20.389-45.511 45.511-45.511h477.867c25.122 0 45.511 20.389 45.511 45.511l-0 659.911zM591.644 76.8h-159.289c-12.584 0-22.756 10.172-22.756 22.756s10.172 22.756 22.756 22.756h159.289c12.584 0 22.756-10.172 22.756-22.756s-10.172-22.756-22.756-22.756z"  horiz-adv-x="1024" />

    
    <glyph glyph-name="qian1" unicode="&#58942;" d="M674.252 752.277L564.12 549.5c-29.668-54.626-47.199-90.903-53.318-109.261h-2.622c-19.23 43.708-73.421 147.721-163.45 312.038H241.59L433.884 421.88H275.679v-72.547H460.98v-100.516H275.679v-74.299H460.98V28.55h91.776V174.52h178.308v74.3H552.757V349.335h178.308v72.546h-152.96l194.042 330.396h-97.895z"  horiz-adv-x="1024" />

    
    <glyph glyph-name="laba1" unicode="&#58626;" d="M567.443 813.845c-11.553 5.682-25.262 4.13-35.334-4.031-0.472-0.396-49.447-40.14-103.508-80.776-94.043-70.733-121.427-82.527-126.985-84.41h-133.25c-0.674 0-1.314-0.099-1.987-0.099h-60.158c-15.157 0-27.452-12.554-27.452-28.049v-447.654c0-15.494 12.294-28.049 27.452-28.049h217.188c5.457-2.015 31.325-14.239 114.758-83.716 48.537-40.404 92.123-79.884 92.561-80.28 6.231-5.649 14.181-8.623 22.197-8.623 4.615 0 9.297 0.991 13.675 3.006 11.991 5.517 19.705 17.675 19.705 31.121v780.834c0.034 13.116-7.309 25.042-18.863 30.725v0 0zM531.773 56.665c-14.787 12.752-31.292 26.793-48.2 40.735-111.424 92.141-138.976 99.871-157.67 99.871-0.371 0-0.707-0.099-1.078-0.099-0.371 0-0.707 0.099-1.078 0.099h-166.731c-19.233 0-23.679 5.55-23.679 25.273v343.554c0 13.38 1.549 21.772 17.347 21.772h151.776c18.189 0 46.146 7.632 168.011 98.781 21.726 16.254 42.946 32.575 61.303 46.913v-676.899zM860.048 392.885c0 86.954-46.179 162.807-114.826 203.608-3.099 1.685-10.475 4.923-15.595 4.923-15.225 0-27.586-12.62-27.586-28.181 0-10.44 5.457-19.756 13.709-24.613v0c53.051-30.791 88.89-88.969 88.89-155.737 0-67.958-37.051-127.028-91.685-157.389v0c-7.949-4.956-13.204-13.942-13.204-24.15 0-15.561 12.362-28.181 27.586-28.181 6.467-0.066 14.147 3.832 14.147 3.832 70.734 40.272 118.564 117.348 118.564 205.888v0 0zM828.217 739.775c-5.12 3.139-10.24 5.682-16.437 5.682-15.157 0-27.452-12.554-27.452-28.049 0-11.167 6.501-20.12 15.663-25.24 100.813-60.062 168.617-171.562 168.617-299.35 0-127.689-67.703-239.123-168.415-299.218-8.825-4.89-16.437-14.173-16.437-25.637 0-15.494 12.294-28.049 27.452-28.049 6.097 0 10.947 2.379 16.235 5.517 116.981 69.708 195.665 199.115 195.665 347.386 0 148.007-78.347 277.149-194.89 346.957v0 0z"  horiz-adv-x="1103" />

    
    <glyph glyph-name="jiantoushang" unicode="&#58925;" d="M910.222222 99.555556c-17.066667 0-34.133333 5.688889-45.511111 17.066666L551.822222 486.4c-11.377778 5.688889-17.066667 11.377778-34.133333 11.377778-5.688889 0-22.755556-5.688889-28.444445-11.377778l-329.955555-364.088889c-22.755556-22.755556-56.888889-22.755556-79.644445-5.688889-22.755556 22.755556-22.755556 56.888889-5.688888 79.644445l329.955555 364.088889c28.444444 34.133333 73.955556 51.2 119.466667 51.2s85.333333-22.755556 119.466666-56.888889l312.888889-364.088889c22.755556-22.755556 17.066667-56.888889-5.688889-79.644445-11.377778-5.688889-28.444444-11.377778-39.822222-11.377777z"  horiz-adv-x="1024" />

    
    <glyph glyph-name="jiantouyou" unicode="&#58926;" d="M312.888889-99.555556c-17.066667 0-28.444444 5.688889-39.822222 17.066667-22.755556 22.755556-17.066667 56.888889 5.688889 79.644445l364.088888 329.955555c11.377778 11.377778 17.066667 22.755556 17.066667 34.133333 0 11.377778-5.688889 22.755556-17.066667 34.133334L273.066667 708.266667c-22.755556 22.755556-28.444444 56.888889-5.688889 79.644444 22.755556 22.755556 56.888889 28.444444 79.644444 5.688889l364.088889-312.888889c34.133333-28.444444 56.888889-73.955556 56.888889-119.466667s-17.066667-85.333333-51.2-119.466666l-364.088889-329.955556c-11.377778-5.688889-28.444444-11.377778-39.822222-11.377778z"  horiz-adv-x="1024" />

    
    <glyph glyph-name="jiantouxia" unicode="&#58927;" d="M517.688889 99.555556c-45.511111 0-85.333333 17.066667-119.466667 51.2L73.955556 514.844444c-22.755556 22.755556-17.066667 56.888889 5.688888 79.644445 22.755556 22.755556 56.888889 17.066667 79.644445-5.688889l329.955555-364.088889c5.688889-5.688889 17.066667-11.377778 28.444445-11.377778s22.755556 5.688889 34.133333 17.066667l312.888889 364.088889c22.755556 22.755556 56.888889 28.444444 79.644445 5.688889 22.755556-22.755556 28.444444-56.888889 5.688888-79.644445L637.155556 156.444444c-28.444444-39.822222-68.266667-56.888889-119.466667-56.888888 5.688889 0 0 0 0 0z"  horiz-adv-x="1024" />

    
    <glyph glyph-name="quanqiu" unicode="&#58904;" d="M512 896a512 512 0 1 1 0-1024A512 512 0 0 1 512 896z m0-896A384 384 0 1 0 512 768a384 384 0 0 0 0-768z m-61.568 514.304l1.344 21.056 27.136 10.56h58.24l17.6 15.808 10.816 30.336 29.824 15.808 39.36 27.648 0.896 6.912a307.072 307.072 0 0 1-131.008 30.016 307.136 307.136 0 0 1-214.016-85.952l-2.816-10.24 1.344-18.432 23.04-17.152 8.128-17.152 1.344-23.744-1.344-27.648 20.352-1.344 21.696-7.936s17.6-5.248 23.04-10.56c5.44-5.248 35.264-23.744 39.296-30.336 4.096-6.592 24.384-6.592 24.384-6.592 16.256 13.184 0 31.616 0 31.616l-6.784 15.936-5.44 15.808 2.688 18.432 10.88 17.152z m302.208-206.912l-17.6 21.056h-25.728l-23.04 7.936-17.6 27.648-28.48 22.4-12.224 25.088h-29.824l-41.984 7.872-12.224-3.968-17.6-19.712-14.912-10.56-6.784-50.112v-59.328c0-5.248 8.128-15.808 14.912-26.368 6.784-10.56 10.816-22.4 16.256-28.992 5.44-6.592 12.16-6.592 21.696-10.56 9.472-3.968 18.944-13.184 23.04-19.776s6.784-31.616 6.784-31.616l5.44-43.52v-18.816c15.424 4.544 30.272 9.92 44.544 16.704l19.136 13.952 32.512 19.776 11.264 6.528c25.536 21.12 47.36 45.888 64.576 74.048l2.816 15.552v26.56l-4.096 15.808-10.88 22.4z"  horiz-adv-x="1024" />

    
    <glyph glyph-name="arrRight-fill" unicode="&#58650;" d="M646.52193155 661.11115837l-279.65492248-279.65492248 278.8075161-278.8075161z"  horiz-adv-x="1024" />

    
    <glyph glyph-name="Home-change" unicode="&#58905;" d="M844.8 358.4c0 87.7-37 169.5-100.6 227.4-10.5 9.5-26.7 8.7-36.2-1.7-9.5-10.5-8.7-26.7 1.7-36.2 53.1-48.2 83.9-116.4 83.9-189.5 0-133-101.5-242.4-231.2-254.8l34.9 40.4c9.2 10.7 8 26.9-2.7 36.1-10.7 9.2-26.9 8-36.1-2.7l-76.6-88.9c-9.3-10.8-8-27.1 2.9-36.3l84.7-71.7c10.8-9.1 26.9-7.8 36.1 3 9.1 10.8 7.8 26.9-3 36.1l-38.5 32.6c157.2 13.5 280.7 145.4 280.7 306.2zM373.9 161.5c-58.1 48.4-92.3 119.8-92.3 196.8 0 141.4 114.6 256 256 256h0.7l-39.6-38.5c-10.1-9.9-10.4-26.1-0.5-36.2 9.9-10.1 26.1-10.4 36.2-0.5l84.1 81.8c10.2 9.9 10.3 26.3 0.3 36.4l-78.1 78.8c-10 10-26.2 10.1-36.2 0.1-10-10-10.1-26.2-0.1-36.2l34.3-34.6h-1.1c-169.7 0-307.2-137.5-307.2-307.2 0-92.4 41.1-178.2 110.7-236.2 10.9-9 27-7.6 36.1 3.3 9.1 11.1 7.6 27.2-3.3 36.2z"  horiz-adv-x="1024" />

    
    <glyph glyph-name="_muyingertong" unicode="&#58894;" d="M860.16 607.8464c-47.7184 0-71.2704-23.1424-79.0528-45.056-77.2096-24.7808-109.9776-104.6528-121.0368-139.264H430.08a20.48 20.48 0 0 1 20.48 24.9856L386.6624 732.16a20.48 20.48 0 0 1-4.7104 9.0112 37.2736 37.2736 0 0 1-28.2624 12.9024 48.128 48.128 0 0 1-42.3936-30.72l-11.0592 3.8912-5.9392 2.2528a47.9232 47.9232 0 0 1-16.1792 2.6624 29.4912 29.4912 0 0 1-21.9136-9.0112A45.056 45.056 0 0 1 245.76 691.2a130.8672 130.8672 0 0 0-16.7936 0H225.28a37.6832 37.6832 0 0 1-40.96-40.96 75.5712 75.5712 0 0 0-1.8432-20.48C156.4672 629.76 143.36 608.256 143.36 568.32c0-14.1312-1.4336-16.9984-1.8432-17.6128S138.24 547.84 122.88 547.84c-25.6-1.4336-40.96-45.056-40.96-69.0176a53.0432 53.0432 0 0 1 14.9504-38.912 64.9216 64.9216 0 0 1 46.4896-16.384 20.48 20.48 0 0 1-20.48-20.48c0-153.8048 166.5024-245.76 327.68-245.76 169.3696 0 307.2 110.1824 307.2 245.76a83.3536 83.3536 0 0 0 34.816 74.9568 84.3776 84.3776 0 0 1 67.584-33.9968 78.4384 78.4384 0 0 1 81.92 81.92 80.0768 80.0768 0 0 1-81.92 81.92z m-737.28-81.92c36.864 0 40.96 13.5168 40.96 40.96 0 15.36 0 40.96 20.48 40.96s20.48 19.2512 20.48 40.96c0 16.5888 8.8064 20.48 20.48 20.48 20.48 0 40.96-1.2288 40.96 20.48s6.7584 25.3952 20.48 20.48 36.4544-15.7696 40.96 0c6.144 20.48 27.2384 30.1056 38.5024 17.408L430.08 444.0064H143.36c-70.8608 0-32.3584 81.92-20.48 81.92z m737.28-61.44a71.2704 71.2704 0 0 0-61.44 40.96 104.448 104.448 0 0 1-61.44-102.4c0-122.88-127.7952-225.28-286.72-225.28s-307.2 92.3648-307.2 225.28h532.48s26.4192 121.6512 122.88 143.36c0 16.9984 16.5888 40.96 61.44 40.96a60.0064 60.0064 0 0 0 61.44-61.44 58.368 58.368 0 0 0-61.44-61.44zM593.92 177.7664a81.92 81.92 0 1 1 81.92-81.92 81.92 81.92 0 0 1-81.92 81.92z m0-143.36a61.44 61.44 0 1 0 61.44 61.44 61.44 61.44 0 0 0-61.44-61.44zM266.24 177.7664a81.92 81.92 0 1 1 81.92-81.92 81.92 81.92 0 0 1-81.92 81.92z m0-143.36a61.44 61.44 0 1 0 61.44 61.44 61.44 61.44 0 0 0-61.44-61.44z"  horiz-adv-x="1024" />

    
    <glyph glyph-name="jin" unicode="&#58628;" d="M512 896C229.7 896 0 666.3 0 384s229.7-512 512-512 512 229.7 512 512S794.3 896 512 896z m0-969.1C260-73.10000000000002 54.9 132 54.9 384 54.9 636 260 841.1 512 841.1S969.1 636 969.1 384c0-252-205.1-457.1-457.1-457.1z m123.9 724.9L554.6 502c-21.7-40.6-34.9-67.6-39.8-81h-1.4c-14.3 32.5-54.6 109.4-121.1 230.8h-76.5L458 407.5H341.4v-54h136.7v-74.4H341.4v-54.6h136.7v-108.3h67.8V224.5h131.8v54.6H545.9v74.4h131.8v54H564.6l143.6 244.3h-72.3z"  horiz-adv-x="1024" />

    
    <glyph glyph-name="guizezhongxin1" unicode="&#58899;" d="M510.259527 677.927975c-160.123125 0-290.408543-131.082271-290.408542-292.135056s130.241148-292.179326 290.408542-292.179327c160.078855 0 290.320003 131.12654 290.320004 292.179327 0 161.097056-130.196879 292.135057-290.320004 292.135056z m-23.817042-88.362111h47.589815v-286.33574h-47.589815V589.565864z m23.817042-408.475552a37.319269 37.319269 0 1 0 0 74.682806 37.319269 37.319269 0 0 0 0-74.682806zM510.215258 895.95573C228.483556 895.95573 0.052446 667.524621 0.052446 385.792919c0-281.731702 228.43111-510.207081 510.162812-510.207082 281.775972 0 510.162812 228.475379 510.162812 510.207082C1020.422339 667.56889 792.035499 895.95573 510.215258 895.95573z m0.044269-846.124767c-184.294324 0-334.191172 150.693701-334.191172 335.961956s149.896848 335.961956 334.191172 335.961955 334.102633-150.737971 334.102633-335.961955c0-185.179716-149.808309-335.961956-334.102633-335.961956z"  horiz-adv-x="1027" />

    
    <glyph glyph-name="quanqiu1" unicode="&#59314;" d="M517.7 832C268.2 832 64.1 633.6 64.1 384.1S262.5-63.8 512-63.8s447.9 198.4 447.9 447.9S767.1 832 517.7 832z m0-56.7h17c0-11.3 0-28.3 5.7-45.4 22.7-39.7 22.7-85-5.7-96.4-34-17-113.4-11.3-136.1-68-5.7-17-11.3-45.4 5.7-68 11.3-22.7 45.4-73.7 45.4-90.7 5.7-22.7-11.3-34-28.3-28.3-28.3 5.7-56.7 51-113.4 39.7-51-11.3-73.7-56.7-107.7-79.4-22.7-17-51-11.3-73.7-5.7 0 17-5.7 34-5.7 51-0.1 215.4 175.7 391.2 396.8 391.2zM137.8 265c17 0 45.4 0 79.4 11.3 51 17 85 96.4 124.7 73.7 22.7-11.3 68-45.4 124.7-28.3 39.7 11.3 51 56.7 45.4 90.7-5.7 28.3-22.7 56.7-45.4 90.7s-11.3 51 22.7 56.7c22.7 5.7 73.7 17 90.7 34 45.4 34 34 119.1 11.3 158.7-5.7 5.7-5.7 11.3 0 17 181.4-34 317.5-192.8 317.5-385.5 0-51-11.3-102.1-28.3-147.4-28.3-28.3-85-62.4-158.7-79.4-68-17-164.4 0-215.4-45.4-39.7-28.3-51-79.4-51-119.1C307.9 15.6 183.2 123.3 137.8 265z m379.9-277.8c-5.7 0-5.7 0 0 0-5.7 22.7 0 56.7 22.7 79.4 39.7 34 102.1 11.3 187.1 28.3 39.7 5.7 68 17 96.4 34-73.8-85-187.2-141.7-306.2-141.7z"  horiz-adv-x="1024" />

    
    <glyph glyph-name="icon-test" unicode="&#58882;" d="M250.5 445.2c18.5 0 38.5 15 38.5 33.4V635.8c0 18.4 18.8 40.2 37.3 40.2H729c18.4 0 19-21.8 19-40.2v-156.2c0-18.5 19.5-33.4 38-33.4s38 15 38 33.4V635.8c0 55.3-39.7 101.2-95 101.2H326.3C271 737 212 691.1 212 635.8v-157.2c0-18.4 20-33.4 38.5-33.4zM962 504.5c-18.5 0-31-15-31-33.4v-331.8c0-18.4-2.2-29.3-20.6-29.3h-47c-18.4 0-39.4 10.8-39.4 29.3V327.5c0 18.5-9 42.5-27.4 42.5H260.2c-0.1 0-0.2-0.2-0.3-0.2-0.1 0-7.4-0.3-7.5-0.3-18.5 0-40.3-24-40.3-42.4v-187.9c0-18.4-1-29.3-19.4-29.3h-47.8c-18.4 0-39.7 10.8-39.7 29.3V471.1c0 18.5-20 33.4-38.5 33.4S28 489.5 28 471.1v-331.8C28 84 89.5 33 144.7 33h47.8c55.3 0 96.4 51 96.4 106.3v0.7h459v-0.7C748 84 808.1 33 863.4 33h47c55.3 0 82.6 51 82.6 106.3V471.1c0 18.4-12.5 33.4-31 33.4zM289 217v76h459v-76H289z"  horiz-adv-x="1024" />

    
    <glyph glyph-name="zhiying" unicode="&#58977;" d="M371.2 313.6h281.6v-38.4H371.2zM371.2 236.8h281.6v-38.4H371.2zM371.2 390.4h281.6v-38.4H371.2zM371.2 473.6h281.6v-44.8H371.2zM512 896C230.4 896 0 665.6 0 384s230.4-512 512-512 512 230.4 512 512-230.4 512-512 512z m256-742.4H256V192h64V512h166.4v38.4H268.8v44.8h217.6V640h57.6v-44.8h217.6v-44.8H537.6V512H704v-320h64v-38.4z"  horiz-adv-x="1024" />

    
    <glyph glyph-name="lianxikefu" unicode="&#59921;" d="M584.85889 355.232816c-17.575284 3.852748-35.501562 7.474228-53.0748 14.304797-47.120181 18.219967-77.835739 53.370535-91.26561 71.587432-14.598486-25.631774-50.683333-81.455173-90.682325-96.053659-0.584308-10.742668-1.166569-22.070668-1.166569-26.278504l0.291642-9.511631c0-99.326193 67.092048-168.81073 163.436326-168.81073h0.582262c74.855872 0 132.430148 42.333154 153.918555 108.314914a124.468826 124.468826 0 0 0-8.350179-9.225105c-18.160615-18.510586-39.647999-33.109072-64.114226-42.97579-17.281595-6.889921-35.499515-11.620665-54.593386-13.719467-2.397606-8.702196-13.138228-15.243169-26.568099-15.243169-14.947434 0-26.859741 8.352225-26.859741 18.217921 0 10.162454 11.968589 18.219967 26.859741 18.219966 10.453073 0 19.384489-3.9121 23.882944-9.868765 59.322084 6.541997 107.085924 36.963866 135.991254 83.497693 1.51654 10.103102 2.396583 20.556175 2.396583 31.593556l0.579191 1.221827-0.877997 0.874927c-22.361287 29.255301-55.468312 36.378535-90.385566 43.853787zM511.715009 831.995267c-247.281943 0-447.742511-200.461591-447.74251-447.74251 0-247.283989 200.460568-447.743534 447.74251-447.743534 247.283989 0 447.744557 200.460568 447.744557 447.743534-0.001023 247.28092-200.460568 447.742511-447.744557 447.74251z m231.555773-528.439414c-3.559059-13.429871-12.199856-24.173562-23.237237-30.417777-8.641821-6.835685-19.382443-11.038404-31.002084-11.038404-0.64673 0-1.231037 0.288572-1.810229 0.288573-18.804275-82.621742-86.541005-138.676409-175.116343-138.67641-88.63776 0-156.313092 56.053644-175.11225 138.386814-9.519818 0-18.161638 2.683109-25.634844 7.477299-14.598486 5.368264-26.507724 17.279548-31.005154 33.686216-6.013971 22.073738 2.043542 37.547151 12.201903 47.996131v18.222013c-1.224898 68.02428 18.803251 124.954897 58.155515 165.538197 18.805298 19.384489 41.459251 33.981952 67.734683 44.140313 3.853771 36.727483 43.559075 65.632813 91.557253 65.632813 47.999201 0 87.351464-28.961612 91.554182-65.632813 26.276457-10.158361 48.933479-24.755824 67.732637-44.140313 39.36045-40.583301 59.328223-97.804537 58.158585-165.831886v-14.891151c11.623735-10.391674 22.074761-26.797319 15.823383-50.739615z"  horiz-adv-x="1024" />

    
    <glyph glyph-name="laba" unicode="&#58997;" d="M839.424 75.008c-9.216 0-17.152 6.144-19.456 14.848-2.304 8.704 1.28 18.176 9.216 22.784 46.336 27.136 84.992 65.792 112.128 111.872 27.904 47.872 42.752 102.144 42.752 157.696 0 55.04-14.592 109.056-41.984 156.416-26.624 46.08-64.768 84.48-110.592 111.872-9.472 5.632-12.8 18.176-6.912 27.648 5.632 9.728 18.176 12.8 27.648 6.912 51.712-30.976 94.464-74.24 124.928-126.208 30.976-53.76 47.36-114.688 47.36-176.64 0-62.72-16.64-124.16-48.128-178.176-30.72-52.224-74.24-95.744-126.72-126.464-3.072-1.792-6.656-2.56-10.24-2.56z m-106.752 130.816c-9.216 0-17.152 6.144-19.456 14.848-2.304 8.704 1.28 18.176 9.472 22.784 23.808 13.824 43.52 33.792 57.6 57.6 14.336 24.576 22.016 52.48 21.76 80.896 0 28.16-7.424 56.064-21.504 80.128-13.824 23.552-33.28 43.264-56.576 57.344-9.472 5.888-12.288 18.176-6.656 27.648 5.632 9.472 17.92 12.8 27.392 7.168 29.44-17.408 53.76-42.24 70.912-71.68 17.664-30.464 26.88-65.28 26.88-100.608 0-35.584-9.472-70.4-27.392-101.376a201.7792 201.7792 0 0 0-71.936-71.936c-3.328-1.792-6.912-2.816-10.496-2.816zM254.208 140.544c-2.048 1.28-52.992 33.792-110.08 33.024h-0.256C71.936 173.568 11.008 227.584 2.048 299.52v0.512l-1.536 16.128v130.56l1.792 16.64c8.96 71.68 69.888 125.952 141.824 125.952h1.024c0.512 0 65.536-3.072 109.568 33.024l0.768 0.512L496.64 803.328c9.728 7.424 20.224 13.824 31.232 18.944 26.112 12.288 50.432 13.824 69.888 5.12 9.984-4.352 20.224-10.496 28.16-23.296 7.936-12.544 12.288-29.952 13.824-54.272v-736.256c-0.768-32-4.608-66.816-41.984-79.616-7.168-2.304-14.592-3.328-22.272-3.328-36.608 0-72.96 24.832-78.08 28.416L458.24-13.568l-204.032 154.112z m220.16-105.472l37.376-26.112c9.728-6.912 42.24-25.344 60.928-18.944 6.656 2.304 13.312 4.352 14.08 40.192V732.16c-2.048 33.536-9.216 36.864-17.408 40.448-17.664 7.936-47.616-11.008-56.832-18.176l-0.512-0.256-230.4-172.544c-51.968-42.24-122.624-40.448-130.56-40.192-49.152-0.256-90.624-37.376-96.768-86.272l-1.28-13.312v-121.088l1.28-13.312c6.144-49.152 47.872-86.272 97.024-86.272h2.304c66.816 0 122.624-36.608 124.928-38.144l195.84-147.968z m0 0"  horiz-adv-x="1024" />

    
    <glyph glyph-name="huanyipi" unicode="&#59164;" d="M512 626.077V505.04l161.385 161.384L512 827.81V706.77c-178.33 0-322.77-144.44-322.77-322.77 0-63.344 18.56-122.048 50.03-171.875l58.905 58.906c-17.954 33.69-28.242 72.018-28.242 112.97 0 133.747 108.329 242.076 242.077 242.076z m272.74-70.201l-58.905-58.906c17.954-33.69 28.242-72.018 28.242-112.97 0-133.748-108.329-242.077-242.077-242.077V262.96L350.614 101.577 512-59.808V61.23c178.33 0 322.77 144.44 322.77 322.77 0.001 63.344-18.558 122.048-50.028 171.876z"  horiz-adv-x="1024" />

    
    <glyph glyph-name="shoubiao" unicode="&#58903;" d="M656.5-64.037H307.995c-13.688 0-24.787 11.098-24.787 24.785V86.276c0 13.688 11.098 24.786 24.787 24.786 13.687 0 24.786-11.098 24.786-24.786v-100.741h298.934V92.478c0 13.688 11.097 24.786 24.786 24.786 13.688 0 24.786-11.098 24.786-24.786v-131.73c0-13.687-11.1-24.785-24.787-24.785zM307.995 650.162c-13.688 0-24.787 11.098-24.787 24.786V806.572c0 13.688 11.098 24.787 24.787 24.787H656.5c13.688 0 24.786-11.098 24.786-24.787v-126.98c0-13.688-11.098-24.786-24.786-24.786s-24.786 11.097-24.786 24.786V781.786H332.78v-106.839c0-13.687-11.098-24.785-24.786-24.785z m174.252-621.276c-195.625 0-354.774 159.152-354.774 354.774s159.149 354.774 354.774 354.774S837.021 579.283 837.021 383.66 677.874 28.886 482.247 28.886z m0 659.976c-168.292 0-305.202-136.913-305.202-305.202s136.91-305.202 305.202-305.202S787.45 215.371 787.45 383.66 650.54 688.862 482.247 688.862z m-0.997-354.774a24.713 24.713 0 0 0-17.524 7.259l-109.541 109.54c-9.683 9.683-9.683 25.373 0 35.056 9.67 9.676 25.379 9.676 35.049 0l92.016-92.016 135.832 135.83c9.67 9.676 25.367 9.676 35.05 0 9.682-9.683 9.682-25.376 0-35.056L498.774 341.347a24.704 24.704 0 0 0-17.524-7.259z"  horiz-adv-x="1024" />

    
    <glyph glyph-name="laba2" unicode="&#58895;" d="M1017.443286 64.047127h0.081959v0.475364z m0 0M848.623436 802.566352c-6.310869 3.786522-12.588955 6.884585-20.243957 6.884584a33.78364 33.78364 0 0 1-33.78364-33.832815c0-13.490507 7.98284-24.276357 19.276837-30.406916 124.152009-72.452057 207.652185-206.914551 207.652185-361.014503s-83.434609-288.414919-207.422699-360.850584C803.20157 17.39587 793.858205 6.216616 793.858205-7.585337a33.849208 33.849208 0 0 1 33.816424-33.865599c7.491084 0 13.441332 2.884969 19.965295 6.638706 144.084521 84.106675 240.960461 240.173651 240.960461 419.008932 0.016392 178.425484-96.466144 334.181015-239.976949 418.36965z m0 0M887.816393 384.180311a283.874372 283.874372 0 0 1-141.396255 245.599359c-3.835697 1.999808-12.834833 5.917464-19.145702 5.917465a34.209829 34.209829 0 0 1-17.11311-63.682408A215.979254 215.979254 0 0 0 706.735426 194.428045a34.078694 34.078694 0 0 1 17.686825-63.125084c7.98284 0 17.473731 4.655291 17.473732 4.655291a284.021899 284.021899 0 0 1 145.887626 248.287626z m0 0M582.829295 891.918425a41.307508 41.307508 0 0 1-43.553194-4.917561c-0.573715-0.458972-60.879398-48.405186-127.446774-97.433264C296.004387 704.215143 262.269922 690.068961 255.418121 687.823275h-145.068032c-0.835985 0-1.639187 0-2.45878-0.114743h-74.091244A33.800032 33.800032 0 0 1 0.000033 653.875716v-539.882567a33.734465 33.734465 0 0 1 33.800032-33.78364h248.517112c6.687882-2.442388 38.553674-17.145894 141.314295-100.973908 59.813927-48.733024 113.431727-96.367793 114.005442-96.810373a40.97967 40.97967 0 0 1 27.308853-10.392444 41.586169 41.586169 0 0 1 16.867232 3.622603 41.110805 41.110805 0 0 1 24.276357 37.537378V86.569553a33.324668 33.324668 0 0 1 1.639186 10.310485c0 3.671778-1.639187 757.992765-1.639186 757.992765a41.192765 41.192765 0 0 1-23.260061 37.078406z m-43.356491-789.170098c0-1.967024-0.606499-124.086441-0.606499-124.086441-18.211365 15.408356-38.455323 32.324764-59.322171 49.175604-137.15076 111.071298-171.147495 120.398271-194.128894 120.398271-0.491756 0-0.901553-0.114743-1.344133-0.114743s-0.852377 0.114743-1.344133 0.114743H96.351433c-23.653466 0-29.177525 6.720666-29.177525 30.488875V593.078278c0 16.14599 1.917849 26.226989 21.309429 26.226989h168.000256c22.407684 0 56.797823 9.163054 206.914551 119.119705 26.718745 19.637458 52.945734 39.340483 75.451769 56.617512 0 0 0.491756-583.829166 0.622891-683.704818-0.688458-2.770226 0-5.655194 0-8.589339z m0 0"  horiz-adv-x="1088" />

    
    <glyph glyph-name="hanbao1" unicode="&#58913;" d="M885.4 387.3H140.6c-13.8 0-25 11.2-25 25 0 69.9 18.4 138.6 53.2 198.7 6.9 12 22.2 16 34.2 9.1 12-6.9 16-22.2 9.1-34.2-26.2-45.4-41.8-96.3-45.6-148.7h693c-12.8 180-163.3 322.5-346.5 322.5-72.1 0-141.3-21.9-200-63.3-11.3-8-26.9-5.3-34.8 6-8 11.3-5.3 26.9 6 34.8 67.2 47.4 146.3 72.4 228.8 72.4 53.6 0 105.7-10.5 154.7-31.2 47.3-20 89.8-48.7 126.3-85.2s65.1-79 85.2-126.3c20.7-49 31.2-101.1 31.2-154.7 0-13.8-11.2-24.9-25-24.9zM794.3-46H231.7c-64 0-116.1 52.1-116.1 116.1 0 64 52.1 116.1 116.1 116.1h562.5c64 0 116.1-52.1 116.1-116.1 0.1-64-52-116.1-116-116.1zM231.7 136.3c-36.5 0-66.1-29.7-66.1-66.1 0-36.5 29.7-66.1 66.1-66.1h562.5c36.5 0 66.1 29.7 66.1 66.1 0 36.5-29.7 66.1-66.1 66.1H231.7zM851.5 261.8h-677c-13.8 0-25 11.2-25 25s11.2 25 25 25h677.1c13.8 0 25-11.2 25-25s-11.2-25-25.1-25z"  horiz-adv-x="1024" />

    
    <glyph glyph-name="zheng" unicode="&#59367;" d="M514.043307-128c-49.066667 0-151.466667 53.333333-305.066667 160-66.133333 46.933333-106.666667 121.6-108.8 202.666667l-14.933333 518.4c0 25.6 14.933333 51.2 40.533333 61.866666 130.133333 53.333333 262.4 81.066667 390.4 81.066667s256-27.733333 384-81.066667c23.466667-10.666667 40.533333-34.133333 38.4-61.866666l-14.933333-520.533334c-2.133333-81.066667-42.666667-155.733333-108.8-202.666666-149.333333-104.533333-251.733333-157.866667-300.8-157.866667z m-373.333334 904.533333c-8.533333-4.266667-12.8-10.666667-12.8-21.333333l14.933334-518.4c2.133333-68.266667 36.266667-130.133333 91.733333-168.533333 196.266667-136.533333 262.4-151.466667 279.466667-151.466667 19.2 0 81.066667 14.933333 277.333333 151.466667 55.466667 38.4 87.466667 102.4 89.6 168.533333l14.933333 520.533333c0 8.533333-4.266667 17.066667-12.8 21.333334-121.6 51.2-245.333333 76.8-366.933333 76.8-123.733333-2.133333-249.6-27.733333-375.466667-78.933334zM328.443307 597.333333v42.666667h373.333333v-42.666667h-155.733333v-123.733333h130.133333v-42.666667h-130.133333v-138.666666h174.933333v-42.666667h-420.266667v42.666667h70.4V512h42.666667v-219.733333h87.466667V597.333333h-172.8z"  horiz-adv-x="1024" />

    
    <glyph glyph-name="yunhuojia_meirongcaizhuang" unicode="&#59080;" d="M705.5872 107.52v-97.28a24.8832 24.8832 0 0 0-24.832-24.832H343.04a24.8832 24.8832 0 0 0-24.6272 24.832V441.9072A24.8832 24.8832 0 0 0 343.04 466.7392h337.92a24.8832 24.8832 0 0 0 24.832-24.832v-233.6768a24.832 24.832 0 0 1 24.832-24.832 24.832 24.832 0 0 1 24.832 24.832V441.9072A74.7008 74.7008 0 0 1 680.96 516.4032h-14.3872V801.3824a56.32 56.32 0 0 1-22.4768 45.7728 54.5792 54.5792 0 0 1-62.9248 0.9216L402.2784 726.1184A54.5792 54.5792 0 0 1 378.4704 680.96v-164.5568H343.04a74.7008 74.7008 0 0 1-74.2912-74.496V10.24A74.7008 74.7008 0 0 1 343.04-64h337.92a74.7008 74.7008 0 0 1 74.2912 74.24v97.28a24.832 24.832 0 0 1-24.832 24.832 24.832 24.832 0 0 1-24.832-24.832zM428.1344 680.96a5.12 5.12 0 0 0 2.1504 4.096l178.688 121.9072a5.12 5.12 0 0 0 7.7824-4.096v-286.72H428.1344z"  horiz-adv-x="1024" />

    
    <glyph glyph-name="gerenxihu-icon" unicode="&#58886;" d="M385.6 159.8c0-11.4 6.1-22 16-27.7 9.9-5.7 22.1-5.7 32 0 9.9 5.7 16 16.3 16 27.7 0 11.4-6.1 22-16 27.7-9.9 5.7-22.1 5.7-32 0-9.9-5.7-16-16.3-16-27.7z m0 0M478.6 159.8c0-11.4 6.1-22 16-27.7 9.9-5.7 22.1-5.7 32 0 9.9 5.7 16 16.3 16 27.7 0 11.4-6.1 22-16 27.7-9.9 5.7-22.1 5.7-32 0-9.9-5.7-16-16.3-16-27.7z m0 0M576.1 159.8c0-11.4 6.1-22 16-27.7 9.9-5.7 22.1-5.7 32 0 9.9 5.7 16 16.3 16 27.7 0 11.4-6.1 22-16 27.7-9.9 5.7-22.1 5.7-32 0-9.9-5.7-16-16.3-16-27.7z m0 0M610.2-61.6H414c-69.5 0-126 56.5-126 126V546.1c0 69.5 56.5 126 126 126h196.2c69.5 0 126-56.5 126-126v-481.7c-0.1-69.5-56.6-126-126-126zM414 608c-34.2 0-62-27.8-62-62v-481.7c0-34.2 27.8-62 62-62h196.2c34.2 0 62 27.8 62 62V546.1c0 34.2-27.8 62-62 62H414zM592.1 624.2h-160V830.4h160v-206.2z m-128 32h96V798.4h-96v-142.2zM240 698.1L210.3 710c13.7 34.2 36.3 48.1 52.9 53.8 15.5 5.3 28.6 4.5 33 4.1l161.1-1.8-0.4-32-163.2 1.9-0.9 0.2c-1 0.1-9.9 0.9-20.4-3-14.3-5.4-25.2-17.2-32.4-35.1z"  horiz-adv-x="1024" />

    
    <glyph glyph-name="lianxikefu1" unicode="&#58945;" d="M778.24 561.493333C740.693333 672.426667 634.88 752.64 512 752.64s-228.693333-80.213333-266.24-191.146667c-42.666667-6.826667-76.8-44.373333-76.8-90.453333 0-51.2 40.96-92.16 92.16-92.16h3.413333c8.533333 0 15.36 3.413333 20.48 10.24 5.12 6.826667 6.826667 15.36 5.12 22.186667-5.12 18.773333-8.533333 39.253333-8.533333 59.733333v8.533333 8.533334c0 3.413333 0 8.533333 1.706667 11.946666V503.466667c1.706667 8.533333 3.413333 17.066667 5.12 23.893333 25.6 98.986667 116.053333 172.373333 223.573333 172.373333s196.266667-73.386667 221.866667-172.373333c1.706667-8.533333 3.413333-18.773333 5.12-27.306667v-1.706666c0-5.12 1.706667-8.533333 1.706666-13.653334v-17.066666c0-20.48-3.413333-39.253333-8.533333-59.733334-1.706667-8.533333 0-15.36 5.12-22.186666s11.946667-10.24 20.48-10.24h5.12c51.2 0 92.16 40.96 92.16 92.16 0 47.786667-32.426667 85.333333-76.8 93.866666zM512 474.453333m-179.2 0a179.2 179.2 0 1 1 358.4 0 179.2 179.2 0 1 1-358.4 0ZM762.88 175.786667c-17.066667 56.32-52.906667 100.693333-97.28 134.826666-39.253333-39.253333-93.866667-63.146667-153.6-63.146666-61.44 0-116.053333 25.6-155.306667 64.853333-63.146667-44.373333-104.106667-117.76-109.226666-197.973333v-6.826667c1.706667-35.84 30.72-66.56 68.266666-66.56h394.24c37.546667 0 66.56 29.013333 68.266667 66.56 0 5.12 0 11.946667-1.706667 17.066667-3.413333 15.36-6.826667 32.426667-13.653333 51.2z"  horiz-adv-x="1024" />

    
    <glyph glyph-name="shouji3" unicode="&#59244;" d="M145.408 896v-1024h733.184V896H145.408z m677.888-968.704H200.704V840.704h622.592v-913.408zM337.92 52.224h348.16v-55.296h-348.16z"  horiz-adv-x="1024" />

    
    <glyph glyph-name="qi1" unicode="&#59433;" d="M856.3 756.4c-9.9 5.6-22 5.3-31.7-0.5-0.4-0.3-44.8-26.8-96.7-26.8-52.2 0-97.9 26.7-98.3 26.9-1.1 0.7-2.2 1.3-3.4 1.8-3.1 1.4-77.5 34.1-146.7 34.1-68.7 0-149-32.3-152.3-33.7-11.8-4.8-19.5-16.3-19.5-29v-407.8c0-10.5 5.2-20.3 14-26.1 8.8-5.8 19.8-6.9 29.5-2.9 19.3 8.1 79.4 29 125.2 29 50.5 0 113.5-24.3 123.7-28.4 11.4-6.2 67.2-34.4 130.5-34.4 70.6 0 125.3 34.9 127.5 36.4 8.9 5.8 14.3 15.7 14.3 26.3V729.1c-0.1 11.3-6.3 21.7-16.1 27.3z m-27.5-403.8c0-9-4.6-17.4-12.1-22.3-1.9-1.3-48.2-30.8-107.9-30.8-53.6 0-100.7 23.8-110.4 29.1-8.7 3.5-61.9 24-104.7 24-38.7 0-89.6-17.7-105.9-24.5-8.2-3.4-17.5-2.5-25 2.4-7.4 4.9-11.8 13.2-11.8 22.1v345c0 10.8 6.6 20.5 16.5 24.6 2.9 1.2 70.8 28.5 128.9 28.5 58.6 0 121.5-27.7 124.1-28.8 1-0.4 1.9-0.9 2.9-1.5 0.3-0.2 39-22.8 83.1-22.8 44 0 81.5 22.4 81.8 22.7 8.3 4.9 18.4 5.1 26.8 0.4 8.3-4.7 13.5-13.5 13.5-23.1v-345zM558.6 38.9H276.2V760.5c0 17.3-14.1 31.4-31.4 31.4-17.3 0-31.4-14.1-31.4-31.4V39H183c-17.3 0-31.4-14-31.4-31.4 0-17.3 14.1-31.4 31.4-31.4h375.5c17.3 0 31.4 14 31.4 31.4 0 17.3-14 31.3-31.3 31.3z"  horiz-adv-x="1024" />

    
    <glyph glyph-name="fenzu" unicode="&#58906;" d="M512-118.15384600000004C234.673231-118.15384600000004 9.846154 106.67323099999999 9.846154 384S234.673231 886.153846 512 886.153846 1014.153846 661.326769 1014.153846 384 789.326769-118.15384600000004 512-118.15384600000004z m0 57.934769c245.326769 0 444.219077 198.892308 444.219077 444.219077S757.326769 828.219077 512 828.219077 67.780923 629.326769 67.780923 384 266.673231-60.21907699999997 512-60.21907699999997zM507.116308 571.352615H276.361846v43.34277h482.264616v-43.34277H551.68v-177.644307h175.812923v-42.121846h-175.812923v-195.347693h232.585846v-42.732307H240.344615v42.732307h95.842462v293.021539h42.732308v-293.021539h128.196923z"  horiz-adv-x="1024" />

    
    <glyph glyph-name="laba3" unicode="&#58984;" d="M693.84 860.4a97.52 97.52 0 0 1-103.856-11.888l-193.264-154.448a65.92 65.92 0 0 0-40.976-14.448H97.808c-53.92 0-97.792-44.64-97.792-99.504v-391.76c0-54.864 43.872-99.504 97.792-99.504h257.952c14.752 0 29.312-5.136 40.96-14.464l193.264-154.448a97.984 97.984 0 0 1 61.264-21.696c14.4 0 28.928 3.232 42.592 9.792 35.136 16.912 56.976 51.952 56.976 91.472V768.944c-0.032 39.504-21.856 74.576-56.976 91.456z m5.792-860.928c0-19.968-10.464-36.928-27.968-45.344a46.16 46.16 0 0 0-49.728 5.776l-193.28 154.448a117.312 117.312 0 0 1-72.896 25.632H97.808c-25.712 0-46.64 21.696-46.64 48.352V580.096c0 26.656 20.928 48.352 46.64 48.352h257.952a117.312 117.312 0 0 1 72.896 25.632L621.92 808.528a46.16 46.16 0 0 0 49.744 5.776c17.52-8.448 27.968-25.376 27.968-45.36v-769.472z m123.312 532.624a25.552 25.552 0 0 1-41.056-17.28 25.6 25.6 0 0 1 10.336-23.632c34.384-25.84 54.896-67.328 54.896-111.04 0-45.168-21.616-87.488-57.84-113.2a25.552 25.552 0 1 1 29.6-41.696c49.728 35.28 79.408 93.184 79.408 154.912-0.016 59.696-28.144 116.496-75.344 151.936z m0 0M910.864 607.568a25.552 25.552 0 0 1-41.056-17.28c-1.072-9.168 2.88-18.192 10.336-23.632 57.552-43.232 91.904-112.688 91.904-185.76 0-75.568-36.224-146.368-96.848-189.392a25.568 25.568 0 1 1 29.6-41.696c74.16 52.56 118.416 138.976 118.416 231.088 0 89.072-42.016 173.824-112.352 226.672z m0 0"  horiz-adv-x="1024" />

    
    <glyph glyph-name="arr-left" unicode="&#58744;" d="M377.47806845 106.88884163l279.65492248 279.65492248-278.8075161 278.8075161z"  horiz-adv-x="1024" />

    
    <glyph glyph-name="shoubiao1" unicode="&#59109;" d="M656.5-64.037H307.995c-13.688 0-24.787 11.098-24.787 24.785V86.276c0 13.688 11.098 24.786 24.787 24.786 13.687 0 24.786-11.098 24.786-24.786v-100.741h298.934V92.478c0 13.688 11.097 24.786 24.786 24.786 13.688 0 24.786-11.098 24.786-24.786v-131.73c0-13.687-11.1-24.785-24.787-24.785zM307.995 650.162c-13.688 0-24.787 11.098-24.787 24.786V806.572c0 13.688 11.098 24.787 24.787 24.787H656.5c13.688 0 24.786-11.098 24.786-24.787v-126.98c0-13.688-11.098-24.786-24.786-24.786s-24.786 11.097-24.786 24.786V781.786H332.78v-106.839c0-13.687-11.098-24.785-24.786-24.785z m174.252-621.276c-195.625 0-354.774 159.152-354.774 354.774s159.149 354.774 354.774 354.774S837.021 579.283 837.021 383.66 677.874 28.886 482.247 28.886z m0 659.976c-168.292 0-305.202-136.913-305.202-305.202s136.91-305.202 305.202-305.202S787.45 215.371 787.45 383.66 650.54 688.862 482.247 688.862z m-0.997-354.774a24.713 24.713 0 0 0-17.524 7.259l-109.541 109.54c-9.683 9.683-9.683 25.373 0 35.056 9.67 9.676 25.379 9.676 35.049 0l92.016-92.016 135.832 135.83c9.67 9.676 25.367 9.676 35.05 0 9.682-9.683 9.682-25.376 0-35.056L498.774 341.347a24.704 24.704 0 0 0-17.524-7.259z"  horiz-adv-x="1024" />

    
    <glyph glyph-name="arrLeft-fill" unicode="&#59020;" d="M234.8888416290282 518.5219315546517l279.65492248535145-279.6549224853517 278.8075160980226 278.80751609802246z"  horiz-adv-x="1024" />

    
    <glyph glyph-name="cart1" unicode="&#58629;" d="M670.21962703 135.71075097000005L264.617653 135.71075097000005c-78.56546589 0-142.48177095 63.91630507-142.48177094 142.48293604L122.13588206 478.325527c0 78.55847993 63.91630507 142.47012807 142.48177094 142.47012807l369.77195805 1e-8c12.73622414 0 23.06352014-10.32496811 23.06352014-23.06119225 0-12.73505906-10.32613319-23.0600283-23.06352015-23.0600283L264.617653 574.67443567c-53.13609728 0-96.36171549-43.21979619-96.36171549-96.34890867L168.25593751 278.19368586999997c0-53.13609728 43.22561821-96.36171549 96.36171549-96.36171548l405.60197403 0c53.13493333 0 96.36055154 43.22561821 96.36055154 96.36171548 0-0.01164288-0.13272974 241.47130141-0.13272973 332.35500827 0 45.08383346 12.67102265 79.80311097 37.6719303 103.20194903 33.78202055 31.61177543 77.25563335 29.12949817 79.10453476 28.99443938 12.71060935-0.84411392 22.32885021-11.82923776 21.48473628-24.53635412-0.84178489-12.7117733-11.7477376-22.31138645-24.53053212-21.48357234-0.07567929 0-26.00220103 1.01293625-44.91733902-17.00220019-15.06248477-14.35110059-22.69443869-37.62419485-22.69443868-69.17542569 0-90.87090005 0.13389369-332.34336541 0.13389369-332.3433654C812.70023405 199.62705603999996 748.78509292 135.71075097000005 670.21962703 135.71075097000005zM634.88560137 428.76963638L300.67004879 428.76963638c-12.73505906 0-23.0600283 10.32496811-23.0600283 23.05886321 0 12.73622414 10.32496811 23.06119225 23.0600283 23.06119226l334.21555146 0c12.73505906 0 23.0600283-10.32496811 23.06002829-23.06119226C657.94562854 439.09460561 647.62182437 428.76963638 634.88560137 428.76963638zM634.88560137 282.77518702L300.67004879 282.77518702c-12.73505906 0-23.0600283 10.32613319-23.0600283 23.0600283 0 12.73622414 10.32496811 23.06119225 23.0600283 23.06119226l334.21555146 0c12.73505906 0 23.0600283-10.32380416 23.06002829-23.06119226C657.94562854 293.10248417 647.62182437 282.77518702 634.88560137 282.77518702zM788.78445007 58.22109379999995m-46.12005546 0a45.06965333 45.06965333 0 1 1 92.24011093 0 45.06965333 45.06965333 0 1 1-92.24011093 0ZM156.34170548 58.22109379999995m-46.12005547 0a45.06965333 45.06965333 0 1 1 92.24011093 0 45.06965333 45.06965333 0 1 1-92.24011093 0Z"  horiz-adv-x="1024" />

    
    <glyph glyph-name="shouji4" unicode="&#58957;" d="M256-64V832h512v-896H256z m0-64h512a64 64 0 0 1 64 64V832a64 64 0 0 1-64 64H256a64 64 0 0 1-64-64v-896a64 64 0 0 1 64-64zM256 704V768h512v-64H256z m0-632.32v64h512v-64H256z m192-96v64h128v-64H448z"  horiz-adv-x="1024" />

    
    <glyph glyph-name="qian2" unicode="&#58898;" d="M694.265 609.012L512 426.746 329.733 609.012c-8.288 8.287-21.725 8.286-30.013-0.001-8.286-8.287-8.286-21.724 0-30.012l161.045-161.044H352.131c-11.721 0-21.221-9.502-21.221-21.221s9.501-21.221 21.22-21.221h139.002v-89.13H363.804c-11.721 0-21.222-9.503-21.222-21.222s9.502-21.22 21.222-21.22h127.329v-131.574c0-11.718 9.502-21.22 21.221-21.22s21.221 9.502 21.221 21.22V243.94h127.328c11.72 0 21.222 9.503 21.222 21.221s-9.502 21.222-21.222 21.222H533.575v89.13h139c11.72 0 21.221 9.502 21.221 21.221s-9.502 21.221-21.22 21.221H563.233L724.278 579c8.287 8.288 8.287 21.725 0 30.013-8.29 8.287-21.723 8.287-30.013 0zM512 830.71c-246.317 0-446.71-200.393-446.71-446.709 0-246.317 200.393-446.71 446.71-446.71s446.71 200.393 446.71 446.71C958.71 630.317 758.317 830.71 512 830.71z m0-850.976c-222.914 0-404.267 181.353-404.267 404.267S289.086 788.266 512 788.266 916.267 606.914 916.267 384 734.913-20.266 512-20.266z"  horiz-adv-x="1024" />

    
    <glyph glyph-name="arrow-right" unicode="&#59022;" d="M694.475 63.547000000000025l-56.285-58.26-393.996 392.021 393.996 392.021 56.285-58.26-331.786-333.761z"  horiz-adv-x="1024" />

    
    <glyph glyph-name="gerenxihu" unicode="&#58959;" d="M455.111111 497.777778a227.555556 227.555556 0 0 1-227.555555-227.555556v-284.444444a56.888889 56.888889 0 0 1 56.888888-56.888889h455.111112a56.888889 56.888889 0 0 1 56.888888 56.888889v284.444444a227.555556 227.555556 0 0 1-227.555555 227.555556H455.111111z m0 56.888889h113.777778a284.444444 284.444444 0 0 0 284.444444-284.444445v-284.444444a113.777778 113.777778 0 0 0-113.777777-113.777778H284.444444a113.777778 113.777778 0 0 0-113.777777 113.777778v284.444444a284.444444 284.444444 0 0 0 284.444444 284.444445z m0 0h113.777778V668.444444H455.111111v-113.777777zM541.411556 840.305778V725.333333H568.888889a56.888889 56.888889 0 0 0 56.888889-56.888889v-170.666666H398.222222V668.444444a56.888889 56.888889 0 0 0 56.888889 56.888889h29.411556V836.380444c-9.386667-1.024-19.057778-2.275556-29.013334-3.697777-59.562667-8.533333-108.657778-22.755556-147.285333-42.894223A16.270222 16.270222 0 0 0 284.444444 804.238222v11.150222A28.444444 28.444444 0 0 0 300.259556 840.817778 511.488 511.488 0 0 0 456.248889 889.571556a577.422222 577.422222 0 0 0 144.099555 3.413333A28.444444 28.444444 0 0 0 625.777778 864.711111v-3.584a23.665778 23.665778 0 0 0-26.737778-23.438222A381.44 381.44 0 0 1 541.468444 840.305778z m132.835555-692.167111a28.444444 28.444444 0 0 0 0-40.220445l-56.775111-57.173333a28.444444 28.444444 0 0 0-40.277333 40.220444l56.832 57.173334a28.444444 28.444444 0 0 0 40.220444 0z m-170.666667 0a28.444444 28.444444 0 0 0 0-40.220445l-56.775111-57.173333a28.444444 28.444444 0 0 0-40.277333 40.220444l56.832 57.173334a28.444444 28.444444 0 0 0 40.220444 0z"  horiz-adv-x="1024" />

    
    <glyph glyph-name="quanqiu2" unicode="&#59041;" d="M517.7 832C268.2 832 64.1 633.6 64.1 384.1S262.5-63.8 512-63.8s447.9 198.4 447.9 447.9S767.1 832 517.7 832z m0-56.7h17c0-11.3 0-28.3 5.7-45.4 22.7-39.7 22.7-85-5.7-96.4-34-17-113.4-11.3-136.1-68-5.7-17-11.3-45.4 5.7-68 11.3-22.7 45.4-73.7 45.4-90.7 5.7-22.7-11.3-34-28.3-28.3-28.3 5.7-56.7 51-113.4 39.7-51-11.3-73.7-56.7-107.7-79.4-22.7-17-51-11.3-73.7-5.7 0 17-5.7 34-5.7 51-0.1 215.4 175.7 391.2 396.8 391.2zM137.8 265c17 0 45.4 0 79.4 11.3 51 17 85 96.4 124.7 73.7 22.7-11.3 68-45.4 124.7-28.3 39.7 11.3 51 56.7 45.4 90.7-5.7 28.3-22.7 56.7-45.4 90.7s-11.3 51 22.7 56.7c22.7 5.7 73.7 17 90.7 34 45.4 34 34 119.1 11.3 158.7-5.7 5.7-5.7 11.3 0 17 181.4-34 317.5-192.8 317.5-385.5 0-51-11.3-102.1-28.3-147.4-28.3-28.3-85-62.4-158.7-79.4-68-17-164.4 0-215.4-45.4-39.7-28.3-51-79.4-51-119.1C307.9 15.6 183.2 123.3 137.8 265z m379.9-277.8c-5.7 0-5.7 0 0 0-5.7 22.7 0 56.7 22.7 79.4 39.7 34 102.1 11.3 187.1 28.3 39.7 5.7 68 17 96.4 34-73.8-85-187.2-141.7-306.2-141.7z"  horiz-adv-x="1024" />

    
    <glyph glyph-name="arrLeft-fill1" unicode="&#58648;" d="M789.11115837 249.47806845000002l-279.65492248 279.65492248-278.8075161-278.8075161z"  horiz-adv-x="1024" />

    
    <glyph glyph-name="ziyuan" unicode="&#58923;" d="M589.905415 722.993831l53.691569-675.882111v-127.736806a26.670322 26.670322 0 0 1 26.670322-26.319397h236.523647a26.670322 26.670322 0 0 1 26.319397 26.319397v127.736806l53.691569 675.882111z m308.112405-794.845784h-219.328307v96.504455h219.328307z m0 131.596984h-221.082933l-48.778616 628.156271H949.603838zM789.581905 574.552433c-65.973955 0-117.559973-77.554489-117.559972-175.462645s51.586018-177.217272 117.559972-177.217273 117.559973 77.554489 117.559973 175.813571-51.586018 176.866347-117.559973 176.866347z m0-318.99109c-45.620288 0-82.467443 63.868403-82.467443 142.124743s36.847156 140.370117 82.467443 140.370117 82.467443-63.517478 82.467444-140.370117-36.847156-142.124743-82.467444-142.124743zM433.74366 421.899931H199.325565A56.148047 56.148047 0 0 1 142.475668 365.751885v-255.122687A56.148047 56.148047 0 0 1 199.325565 53.779301h234.418095a56.849897 56.849897 0 0 1 56.498972 56.148046v255.824538a56.498972 56.498972 0 0 1-56.498972 56.148046z m21.406443-310.919808a21.757368 21.757368 0 0 0-21.406443-21.406442H199.325565a21.055517 21.055517 0 0 0-21.055517 21.055517v255.122687a21.055517 21.055517 0 0 0 21.055517 21.055517h234.418095a21.055517 21.055517 0 0 0 21.406443-21.055517zM447.780672 561.568197V696.323509a39.303633 39.303633 0 0 1-38.952708 39.303633H368.471556V794.582591h118.963674a38.601782 38.601782 0 0 1 3.860178 77.203564L254.069911 896H247.753256a62.815627 62.815627 0 0 1-61.061001-62.815627 38.601782 38.601782 0 0 1 38.601782-38.601782h39.654558v-58.955449H224.241261a38.952707 38.952707 0 0 1-38.601782-39.303633v-134.404386a280.740233 280.740233 0 0 1-148.441398-245.647704V-40.970528a87.029472 87.029472 0 0 1 86.678547-87.029472h386.01782a87.029472 87.029472 0 0 1 86.678547 87.029472V315.218643a280.740233 280.740233 0 0 1-148.792323 246.349554zM225.294037 829.67512a3.509253 3.509253 0 0 0-3.509253 3.509253 27.723098 27.723098 0 0 0 27.723098 27.723098l238.629198-24.213845a2.807402 2.807402 0 0 0 2.807403-3.509253 3.509253 3.509253 0 0 0-3.509253-3.509253H225.294037z m108.08499-35.092529v-58.955449h-33.337903V794.582591z m-112.647019-98.259082a3.860178 3.860178 0 0 0 3.509253 4.211104h184.586703a4.211103 4.211103 0 0 0 3.860179-4.211104V569.639479H220.732008z m340.046607-736.943111a51.586018 51.586018 0 0 0-51.586017-51.936944h-386.017821A51.586018 51.586018 0 0 0 72.29061-40.970528V315.218643a245.647704 245.647704 0 0 0 137.913639 219.328307H423.215901a245.647704 245.647704 0 0 0 137.91364-219.328307z"  horiz-adv-x="1024" />

    
    <glyph glyph-name="shumajiadian2" unicode="&#58907;" d="M189.44-62.976c-96.256 0-176.128 78.336-177.664 175.104V585.216c1.024 89.6 69.12 163.84 157.696 173.568l12.288 1.536 3.072 11.776c10.24 38.4 45.056 65.536 84.992 65.536h225.792c39.424 0 74.24-26.624 84.992-64.512l3.584-12.8h262.656c96.256 0 176.128-78.336 177.664-175.104v-473.088c-1.536-96.256-80.896-175.104-177.664-175.104H189.44z m656.896 54.272c66.56 0 121.344 54.272 122.368 120.832V585.216c-1.024 66.56-55.808 120.832-122.368 120.832h-290.304c-15.36 0-27.648 12.288-28.16 27.136v17.92c-0.512 17.92-14.848 32.256-32.256 32.256H270.848c-17.92 0-32.768-14.336-32.768-31.744v-17.92c0-14.848-12.8-27.136-27.648-27.136H184.32c-64-3.072-115.712-56.32-116.736-120.32v-473.088c1.024-66.56 55.808-120.832 122.368-120.832h1.536l654.848-1.024z m-320.512 123.392c-132.608 0-240.64 104.96-240.64 233.984 0 129.024 108.032 233.984 240.64 233.984s240.64-104.96 240.64-233.984c0-129.024-108.032-233.984-240.64-233.984z m0 414.208c-48.128-1.536-92.672-20.992-125.952-56.32-33.28-34.816-50.688-80.384-49.152-128.512C353.28 245.76 432.128 168.96 530.432 168.96h5.12c98.304 2.56 175.104 81.92 175.104 179.712-1.536 99.328-83.456 179.712-182.272 179.712l-2.56 0.512z"  horiz-adv-x="1024" />

    
    <glyph glyph-name="sousuoyemiantubiao" unicode="&#58969;" d="M806.4740497 752.9277061l-201.76162939-343.20984815H763.68722197v-75.87225711h-185.24179536v-104.47307777H763.68722197v-76.83324466h-185.24179536v-152.15636602H483.17037276v152.15636602h-192.01446972v76.83324466h192.01446972v104.47307777h-192.01446972v75.87225711h163.82550083l-199.79389292 343.20984815h107.44756313c93.35307871-170.50665255 150.0513456-278.54911274 170.14056206-324.26466451h1.92197515c6.81843563 18.80789969 25.4890514 56.69826692 55.92032459 113.76262432l114.26599877 210.50204019h101.59011505z"  horiz-adv-x="1024" />

    
    <glyph glyph-name="zheng1" unicode="&#59271;" d="M515.49184-31.42144c-4.03968 0-7.9872 1.20832-11.33056 3.47136l-219.32032 148.40832a21.504 21.504 0 0 0-1.24416 0.91136c-33.08032 26.27072-59.9296 58.51136-78.2336 95.81568-18.33984 37.38624-28.43136 77.29152-28.43136 118.60992V704.90624c0 9.69216 7.67488 18.0224 17.19808 19.85536L509.93152 785.408a21.20704 21.20704 0 0 0 7.8336 0l314.15808-60.6464c9.5232-1.82784 15.1552-10.1632 15.1552-19.85536v-369.77152c0-41.11872-7.86432-80.8448-26.03008-118.07744-18.1248-37.15072-43.27936-69.31456-76.08832-95.60064-0.40448-0.32256-0.48128-0.62976-0.90624-0.91648l-217.32352-148.43904a19.69664 19.69664 0 0 0-11.2384-3.52256z m-207.33952 184.92928l207.28832-140.26752 205.4912 140.24704c27.8272 22.43072 48.82432 49.78176 64.2048 81.30048 15.45216 31.66208 22.37952 65.42336 22.37952 100.34176v353.0752L512 744.96 216.48384 688.2048v-352.4096c0-35.09248 9.14432-69.00736 24.73984-100.79744 15.52896-31.65184 38.86592-59.0592 66.92864-81.48992zM319.4112 256.128h63.03744V463.40608h33.25952v-207.27808h98.23232V518.7072H337.2032v30.16192h351.91808v-30.16192h-141.9264v-101.31968h128.77824v-29.77792h-128.77824v-131.4816h157.39904v-30.16192H319.4112v30.16192z"  horiz-adv-x="1024" />

    
    <glyph glyph-name="zheng2" unicode="&#59941;" d="M512 896a512 512 0 1 1 512-512A512 512 0 0 1 512 896z m0-983.04A471.04 471.04 0 1 0 983.04 384 470.889412 470.889412 0 0 0 512-87.04z m50.145882 448.903529h148.48v54.061177h-148.48V554.164706h177.844706V609.882353h-433.694117v-55.717647h198.927058v-348.009412h-96.527058V456.583529h-55.265883v-250.428235h-79.058823v-55.265882h488.357647v55.265882H562.145882z"  horiz-adv-x="1024" />

    
    <glyph glyph-name="help-center" unicode="&#58914;" d="M489.844364 802.909091a396.753455 396.753455 0 1 1 0-793.553455 396.753455 396.753455 0 0 1 0 793.553455z m35.514181-581.352727a38.306909 38.306909 0 0 0-37.794909-37.748364 38.306909 38.306909 0 0 0-37.794909 37.794909 38.306909 38.306909 0 0 0 37.794909 37.748364 38.306909 38.306909 0 0 0 37.794909-37.748364z m77.777455 224.442181c-5.213091-5.771636-21.876364-21.317818-49.524364-45.474909-9.541818-7.866182-17.408-17.687273-22.993454-28.718545-5.725091-11.636364-8.564364-24.436364-8.378182-37.422546v-4.980363a33.093818 33.093818 0 1 0-66.001455-3.351273v8.378182c-0.744727 19.409455 3.211636 38.772364 11.496728 56.366545 7.633455 15.36 29.882182 39.703273 67.351272 73.122909l6.888728 8.052364a63.767273 63.767273 0 0 1 15.36 40.866909c0.605091 16.477091-5.213091 32.581818-16.337455 44.823273a62.370909 62.370909 0 0 1-45.986909 16.104727c-25.320727 0-43.147636-7.68-54.132364-23.598545-9.774545-13.265455-14.429091-32.209455-14.42909-56.413091a32.721455 32.721455 0 1 0-65.44291 0c0 42.589091 12.101818 75.915636 37.422546 100.165818 25.274182 24.203636 57.949091 36.258909 100.864 36.258909 37.376 0 67.909818-9.821091 90.903273-30.673454 22.993455-20.852364 34.536727-47.755636 34.536727-82.85091a114.967273 114.967273 0 0 0-21.597091-70.656z"  horiz-adv-x="1024" />

    


  </font>
</defs>
</svg>
